<!-- Generator: Adobe Illustrator 19.0.0, SVG Export Plug-In  -->
<svg version="1.1"
	 xmlns="http://www.w3.org/2000/svg" xmlns:xlink="http://www.w3.org/1999/xlink" xmlns:a="http://ns.adobe.com/AdobeSVGViewerExtensions/3.0/"
	 x="0px" y="0px" width="279.3px" height="279.1px" viewBox="0 0 279.3 279.1" style="enable-background:new 0 0 279.3 279.1;"
	 xml:space="preserve">
<style type="text/css">
	.st0{fill:#145075;}
	.st1{fill:url(#XMLID_7_);}
	.st2{fill:url(#XMLID_8_);}
</style>
<defs>
</defs>
<g id="XMLID_3_">
	<path id="XMLID_4_" class="st0" d="M139.7,279.1c-77,0-139.6-62.6-139.6-139.6C0.2,62.6,62.8,0,139.7,0s139.6,62.6,139.6,139.6
		C279.3,216.5,216.7,279.1,139.7,279.1z M139.7,24C76,24,24.2,75.8,24.2,139.6c0,63.7,51.8,115.6,115.6,115.6
		s115.6-51.8,115.6-115.6C255.3,75.8,203.4,24,139.7,24z"/>
</g>
<g id="XMLID_1_">
	<linearGradient id="XMLID_7_" gradientUnits="userSpaceOnUse" x1="0" y1="197.212" x2="241.6916" y2="197.212">
		<stop  offset="0" style="stop-color:#FF6684"/>
		<stop  offset="1" style="stop-color:#F1F324"/>
	</linearGradient>
	<path id="XMLID_2_" class="st1" d="M238.2,220.9c4.7,4.7,4.7,12.3,0,17c-54.4,54.4-142.9,54.4-197.4,0
		c-29.3-29.3-44-69.8-40.3-111.2c0.6-6.6,6.4-11.5,13-10.9c6.6,0.6,11.5,6.4,10.9,13c-3.1,34.3,9.1,67.8,33.3,92.1
		c45.1,45.1,118.4,45.1,163.4,0C225.9,216.2,233.5,216.2,238.2,220.9z"/>
</g>
</svg>
