<!-- Generator: Adobe Illustrator 19.0.0, SVG Export Plug-In  -->
<svg version="1.1"
	 xmlns="http://www.w3.org/2000/svg" xmlns:xlink="http://www.w3.org/1999/xlink" xmlns:a="http://ns.adobe.com/AdobeSVGViewerExtensions/3.0/"
	 x="0px" y="0px" width="157.8px" height="158.1px" viewBox="0 0 157.8 158.1" style="enable-background:new 0 0 157.8 158.1;"
	 xml:space="preserve">
<style type="text/css">
	.st0{fill-rule:evenodd;clip-rule:evenodd;fill:#FFFFFF;}
</style>
<defs>
</defs>
<g>
	<path class="st0" d="M78.9,51.6c-15.1,0-27.4,12.3-27.4,27.5s12.3,27.5,27.4,27.5s27.4-12.3,27.4-27.5S94,51.6,78.9,51.6L78.9,51.6
		L78.9,51.6 M78.9,98.1c-10.5,0-19-8.5-19-19c0-10.5,8.5-19,19-19c10.5,0,19,8.5,19,19C97.9,89.5,89.4,98.1,78.9,98.1L78.9,98.1
		L78.9,98.1 M139.3,58.7H136l-0.4-1l0,0c0-0.1-0.1-0.2-0.1-0.2l0,0c-0.5-1.2-0.9-2.3-1.4-3.3l-0.5-1l2.4-2.4
		c3.5-3.5,5.4-8.2,5.4-13.1c0-5-1.9-9.6-5.4-13.1l-2.6-2.6c-3.5-3.5-8.1-5.4-13.1-5.4s-9.6,1.9-13.1,5.4l-2.4,2.4l-1-0.5
		c-1-0.5-2.2-0.9-3.6-1.5l-1-0.4v-3.4C99.3,8.3,91,0,80.7,0h-3.7C66.9,0,58.6,8.3,58.6,18.6v3.4l-1,0.4c-1.3,0.5-2.5,1-3.6,1.5
		l-1,0.5l-2.4-2.4c-3.5-3.5-8.1-5.4-13.1-5.4c-4.9,0-9.6,1.9-13.1,5.4l-2.6,2.6c-3.5,3.5-5.4,8.2-5.4,13.1c0,5,1.9,9.6,5.4,13.1
		l2.4,2.4l-0.5,1c-0.4,1-0.9,2-1.4,3.3c0,0.1-0.1,0.2-0.1,0.2l0,0l-0.4,1h-3.3C8.3,58.7,0,67,0,77.2v3.7c0,10.2,8.3,18.6,18.5,18.6
		h3.3l0.4,1l0,0c0,0.1,0.1,0.2,0.1,0.3c0.5,1.2,0.9,2.3,1.4,3.3l0.5,1l-2.4,2.4c-3.5,3.5-5.4,8.2-5.4,13.1c0,5,1.9,9.6,5.4,13.1
		l2.6,2.6c3.5,3.5,8.1,5.4,13.1,5.4c4.9,0,9.6-1.9,13.1-5.4l2.4-2.4l1,0.5c1,0.5,2.2,1,3.5,1.5l1,0.4v3.4c0,10.2,8.3,18.6,18.5,18.6
		h3.7c10.2,0,18.5-8.3,18.5-18.6v-3.4l1-0.4c1.3-0.5,2.5-1,3.6-1.5l1-0.5l2.4,2.4c3.5,3.5,8.1,5.4,13.1,5.4c4.9,0,9.6-1.9,13.1-5.4
		l2.6-2.6c3.5-3.5,5.4-8.2,5.4-13.1c0-5-1.9-9.6-5.4-13.1l-2.4-2.4l0.5-1c0.4-1,0.9-2,1.4-3.3c0-0.1,0.1-0.2,0.1-0.2l0,0l0.4-1h3.3
		c10.2,0,18.5-8.3,18.5-18.6v-3.7C157.8,67,149.5,58.7,139.3,58.7L139.3,58.7L139.3,58.7 M149.4,80.9c0,0.7-0.1,1.4-0.2,2.1
		c-0.1,0.3-0.1,0.5-0.2,0.7c0,0.1,0,0.1-0.1,0.2l0,0.2c-0.1,0.3-0.2,0.6-0.3,0.9c-0.1,0.3-0.3,0.6-0.5,0.9l-0.1,0.2
		c0,0,0,0.1-0.1,0.1c-0.1,0.1-0.2,0.3-0.3,0.5c-0.3,0.5-0.6,0.9-0.9,1.2l0,0c0,0,0,0,0,0c-0.1,0.1-0.1,0.2-0.2,0.3
		c-0.4,0.4-0.8,0.8-1.3,1.2c0,0-0.1,0.1-0.1,0.1c-1.6,1.2-3.4,1.9-5.4,2.1c-0.1,0-0.1,0-0.2,0c-0.2,0-0.5,0.1-0.7,0.1h-9
		c-1.2,5-3.3,9.9-6.1,14.6l6.5,6.5c1.6,1.6,2.7,3.7,3,6.1c0,0.1,0,0.1,0,0.2c0.1,0.6,0.1,1.2,0.1,1.7c0,0.1,0,0.3,0,0.4
		c0,0,0,0.1,0,0.1c0,0.4-0.1,1-0.2,1.5c0,0.2-0.1,0.4-0.2,0.5c0,0.1,0,0.1-0.1,0.2c0,0,0,0.1-0.1,0.2c-0.1,0.3-0.2,0.6-0.3,0.9
		c-0.1,0.3-0.3,0.6-0.4,0.9c0,0.1-0.1,0.1-0.1,0.2c0,0.1-0.1,0.1-0.1,0.2c-0.1,0.2-0.2,0.4-0.3,0.6c-0.4,0.6-0.8,1.1-1.3,1.6
		l-2.6,2.6c-0.5,0.5-1,0.9-1.6,1.3l0,0c-0.2,0.1-0.4,0.2-0.6,0.3c-0.1,0-0.1,0.1-0.2,0.1l-0.1,0.1c-0.3,0.1-0.6,0.3-0.9,0.4
		c-0.3,0.1-0.6,0.2-0.9,0.3c-0.1,0-0.1,0-0.2,0.1l0,0c-0.1,0-0.1,0-0.2,0.1c-0.1,0-0.3,0.1-0.5,0.1c-0.5,0.1-1,0.2-1.5,0.2l0,0
		c0,0-0.1,0-0.1,0c-0.1,0-0.2,0-0.3,0c-0.1,0-0.2,0-0.4,0c-0.4,0-0.9,0-1.4-0.1l0,0c0,0-0.1,0-0.1,0c-2.3-0.3-4.4-1.4-6.1-3
		l-6.5-6.5c-4.7,2.9-9.6,4.9-14.5,6.2v9c0,0.3,0,0.5-0.1,0.7c0,0.1,0,0.1,0,0.2c-0.2,2-0.9,3.9-2.1,5.4c0,0-0.1,0.1-0.1,0.1l0,0
		c-0.4,0.5-0.8,0.9-1.2,1.3c-0.1,0.1-0.2,0.2-0.3,0.2c0,0,0,0,0,0c-0.4,0.3-0.7,0.6-1.2,0.9c-0.2,0.1-0.4,0.2-0.5,0.3
		c-0.1,0-0.1,0.1-0.2,0.1l-0.1,0.1c-0.3,0.2-0.6,0.3-0.9,0.5l0,0c-0.3,0.1-0.6,0.2-0.9,0.3l-0.2,0.1c-0.1,0-0.1,0-0.2,0.1
		c-0.2,0.1-0.4,0.1-0.6,0.2c-0.7,0.1-1.4,0.2-2.1,0.2h-3.6c-0.7,0-1.4-0.1-2.1-0.2c-0.2,0-0.5-0.1-0.6-0.2c-0.1,0-0.1,0-0.2-0.1
		l-0.2-0.1c-0.3-0.1-0.6-0.2-0.9-0.3l0,0c-0.4-0.2-0.7-0.3-0.9-0.5l-0.1-0.1c-0.1,0-0.1-0.1-0.2-0.1c-0.1-0.1-0.3-0.2-0.5-0.3
		c-0.5-0.3-0.9-0.6-1.2-0.9c0,0,0,0,0,0c-0.1-0.1-0.2-0.1-0.3-0.2c-0.4-0.4-0.8-0.8-1.2-1.3l0,0c0,0-0.1-0.1-0.1-0.1
		c-1.2-1.6-1.9-3.4-2.1-5.4c0-0.1,0-0.1,0-0.2c0-0.2-0.1-0.5-0.1-0.7v-9c-5-1.2-9.9-3.3-14.5-6.2l-6.5,6.5c-1.6,1.6-3.7,2.7-6.1,3
		c0,0-0.1,0-0.1,0l0,0c-0.5,0.1-1,0.1-1.4,0.1c-0.1,0-0.2,0-0.4,0c-0.1,0-0.2,0-0.3,0c0,0,0,0-0.1,0l0,0c-0.4,0-0.9-0.1-1.5-0.2
		c-0.2,0-0.4-0.1-0.5-0.1c-0.1,0-0.1,0-0.2-0.1l0,0c-0.1,0-0.1,0-0.2-0.1c-0.3-0.1-0.6-0.2-0.9-0.3c-0.3-0.1-0.6-0.3-0.9-0.4
		l-0.2-0.1c-0.1,0-0.1-0.1-0.2-0.1c-0.2-0.1-0.4-0.2-0.6-0.3c-0.6-0.4-1.1-0.8-1.6-1.3l-2.6-2.6c-0.5-0.5-0.9-1-1.3-1.6
		c-0.1-0.2-0.2-0.4-0.3-0.6c0-0.1-0.1-0.1-0.1-0.2l-0.1-0.2c-0.1-0.3-0.3-0.5-0.4-0.9c-0.1-0.3-0.2-0.7-0.3-0.9
		c0-0.1-0.1-0.2-0.1-0.2c0-0.1,0-0.1-0.1-0.2c0-0.1-0.1-0.3-0.1-0.5c-0.1-0.5-0.2-1-0.2-1.5c0,0,0-0.1,0-0.1c0-0.1,0-0.2,0-0.3
		c0-0.5,0-1.1,0.1-1.7c0-0.1,0-0.1,0-0.2c0.3-2.3,1.4-4.4,3-6.1l6.5-6.5c-2.9-4.7-4.9-9.6-6.1-14.6h-9c-0.3,0-0.5,0-0.7-0.1
		c-0.1,0-0.1,0-0.2,0c-2-0.2-3.9-0.9-5.4-2.1c0,0-0.1-0.1-0.1-0.1c-0.5-0.4-0.9-0.8-1.3-1.2c-0.1-0.1-0.2-0.2-0.2-0.3c0,0,0,0,0,0
		l0,0c-0.3-0.3-0.6-0.7-0.9-1.2c-0.1-0.2-0.2-0.4-0.3-0.5c0-0.1-0.1-0.1-0.1-0.2l-0.1-0.2c-0.1-0.3-0.3-0.6-0.5-0.9
		C9.1,84.6,9,84.2,8.9,84l0-0.2c0-0.1,0-0.1-0.1-0.2c-0.1-0.2-0.1-0.4-0.2-0.7c-0.1-0.7-0.2-1.4-0.2-2.1v-3.6c0-0.7,0.1-1.4,0.2-2.1
		c0.1-0.3,0.1-0.5,0.2-0.7c0-0.1,0-0.1,0.1-0.2c0-0.1,0-0.1,0-0.2c0.1-0.3,0.2-0.6,0.3-0.9c0.1-0.3,0.3-0.6,0.5-0.9l0.1-0.2
		c0,0,0.1-0.1,0.1-0.1c0.1-0.1,0.2-0.3,0.3-0.5c0.3-0.4,0.6-0.8,0.9-1.2l0,0c0,0,0,0,0,0c0.1-0.1,0.1-0.2,0.2-0.3
		c0.4-0.4,0.8-0.8,1.3-1.2c0,0,0.1-0.1,0.1-0.1c1.6-1.2,3.4-1.9,5.4-2.1c0.1,0,0.1,0,0.2,0c0.2,0,0.4-0.1,0.7-0.1h9
		c1.2-5,3.3-9.9,6.1-14.6l-6.5-6.5c-1.6-1.6-2.7-3.7-3-6.1c0-0.1,0-0.1,0-0.2c-0.1-0.6-0.1-1.2-0.1-1.7c0-0.1,0-0.3,0-0.3
		c0,0,0-0.1,0-0.1c0-0.5,0.1-1,0.2-1.5c0-0.2,0.1-0.4,0.2-0.5c0-0.1,0-0.1,0.1-0.2c0,0,0-0.2,0.1-0.2c0.1-0.3,0.2-0.6,0.3-0.9
		c0.1-0.3,0.3-0.6,0.4-0.9l0.1-0.2c0-0.1,0.1-0.1,0.1-0.2c0.1-0.2,0.2-0.4,0.3-0.6c0.4-0.6,0.8-1.1,1.3-1.6l2.6-2.6
		c0.5-0.5,1-0.9,1.6-1.3l0,0c0.2-0.1,0.4-0.2,0.6-0.3c0.1,0,0.1-0.1,0.2-0.1l0.2-0.1c0.3-0.1,0.5-0.3,0.9-0.4
		c0.3-0.1,0.6-0.2,0.9-0.3c0.1,0,0.1,0,0.2-0.1l0,0c0.1,0,0.1,0,0.2-0.1c0.1,0,0.3-0.1,0.5-0.1c0.5-0.1,1.1-0.2,1.5-0.2
		c0,0,0,0,0.1,0c0.1,0,0.2,0,0.4,0c0.1,0,0.2,0,0.3,0c0.4,0,0.9,0,1.4,0.1c0,0,0.1,0,0.2,0c2.3,0.3,4.4,1.4,6,3l6.5,6.5
		c4.7-2.9,9.6-4.9,14.5-6.2v-9c0-0.3,0-0.5,0.1-0.7c0-0.1,0-0.1,0-0.2c0.2-2,0.9-3.9,2.1-5.4c0,0,0.1-0.1,0.1-0.1l0,0
		c0.4-0.5,0.8-0.9,1.2-1.3c0.1-0.1,0.2-0.2,0.3-0.2c0,0,0,0,0,0c0.4-0.3,0.7-0.6,1.2-0.9c0.2-0.1,0.4-0.2,0.5-0.3
		c0.1,0,0.1-0.1,0.2-0.1l0.1-0.1c0.3-0.2,0.6-0.3,1-0.5C73.4,9.1,73.7,9,74,8.9l0.2,0c0.1,0,0.1,0,0.2-0.1c0.2-0.1,0.4-0.1,0.6-0.2
		c0.7-0.1,1.4-0.2,2.1-0.2h3.6c0.7,0,1.4,0.1,2.1,0.2c0.3,0.1,0.5,0.1,0.6,0.2c0.1,0,0.1,0,0.2,0.1l0.2,0c0.3,0.1,0.6,0.2,0.9,0.3
		c0.4,0.1,0.7,0.3,1,0.5l0.1,0.1c0.1,0,0.1,0.1,0.2,0.1c0.1,0.1,0.3,0.2,0.5,0.3c0.5,0.3,0.8,0.6,1.2,0.9c0,0,0,0,0,0
		c0.1,0.1,0.2,0.1,0.3,0.2c0.4,0.4,0.8,0.8,1.2,1.3l0,0c0,0,0.1,0.1,0.1,0.1c1.2,1.6,1.9,3.4,2.1,5.4c0,0.1,0,0.1,0,0.2
		c0,0.2,0.1,0.4,0.1,0.7v9c5,1.2,9.9,3.3,14.5,6.2l6.5-6.5c1.6-1.6,3.7-2.7,6-3c0.1,0,0.2,0,0.2,0c0.5-0.1,0.9-0.1,1.4-0.1
		c0.1,0,0.2,0,0.3,0c0.1,0,0.3,0,0.4,0c0,0,0,0,0.1,0c0.4,0,0.9,0.1,1.5,0.2c0.2,0,0.4,0.1,0.5,0.1c0.1,0,0.1,0,0.2,0.1
		c0,0,0.2,0,0.2,0.1c0.3,0.1,0.6,0.2,0.9,0.3c0.3,0.1,0.6,0.3,0.9,0.4l0.2,0.1c0.1,0,0.1,0.1,0.2,0.1c0.2,0.1,0.3,0.2,0.5,0.3l0,0
		c0.6,0.4,1.1,0.8,1.6,1.3l2.6,2.6c0.5,0.5,0.9,1,1.3,1.6c0.1,0.2,0.2,0.4,0.3,0.6c0,0.1,0.1,0.1,0.1,0.2l0.1,0.2
		c0.1,0.3,0.3,0.5,0.4,0.9c0.1,0.3,0.2,0.7,0.3,0.9c0,0.1,0.1,0.2,0.1,0.2c0,0.1,0,0.1,0.1,0.2c0,0.1,0.1,0.3,0.1,0.5
		c0.1,0.5,0.2,1,0.2,1.5c0,0,0,0,0,0.1c0,0.1,0,0.2,0,0.3c0,0.5,0,1.1-0.1,1.7c0,0.1,0,0.1,0,0.2c-0.3,2.3-1.4,4.4-3,6.1l-6.5,6.5
		c2.9,4.7,4.9,9.6,6.1,14.6h9c0.3,0,0.5,0,0.7,0.1c0.1,0,0.1,0,0.2,0c2,0.2,3.9,0.9,5.4,2.1c0,0,0.1,0.1,0.1,0.1
		c0.5,0.4,0.9,0.8,1.3,1.2c0.1,0.1,0.2,0.2,0.2,0.3c0,0,0,0,0,0l0,0c0.3,0.4,0.6,0.7,0.9,1.2c0.1,0.2,0.2,0.4,0.3,0.5
		c0,0,0,0.1,0.1,0.1l0.1,0.1c0.2,0.3,0.3,0.6,0.5,0.9c0.1,0.3,0.2,0.6,0.3,0.9c0,0.1,0,0.1,0.1,0.2c0,0.1,0,0.1,0.1,0.2
		c0.1,0.2,0.1,0.4,0.2,0.7c0.1,0.7,0.2,1.4,0.2,2.1L149.4,80.9L149.4,80.9L149.4,80.9 M149.4,80.9L149.4,80.9z"/>
</g>
</svg>
