<!-- Generator: Adobe Illustrator 19.0.0, SVG Export Plug-In  -->
<svg version="1.1"
	 xmlns="http://www.w3.org/2000/svg" xmlns:xlink="http://www.w3.org/1999/xlink" xmlns:a="http://ns.adobe.com/AdobeSVGViewerExtensions/3.0/"
	 x="0px" y="0px" width="249.5px" height="249.5px" viewBox="0 0 249.5 249.5" style="enable-background:new 0 0 249.5 249.5;"
	 xml:space="preserve">
<style type="text/css">
	.st0{fill-rule:evenodd;clip-rule:evenodd;fill:#FFFFFF;}
</style>
<defs>
</defs>
<g>
	<polygon class="st0" points="172.7,65.2 124.7,113.2 76.7,65.2 65.2,76.7 113.2,124.7 65.2,172.7 76.7,184.3 124.7,136.2 
		172.7,184.3 184.2,172.7 136.2,124.7 184.2,76.7 172.7,65.2 	"/>
	<path class="st0" d="M239.7,76.2c-6.3-14.9-15.3-28.2-26.7-39.7c-11.5-11.5-24.8-20.5-39.7-26.7C157.9,3.3,141.6,0,124.7,0
		c-16.8,0-33.2,3.3-48.5,9.8C61.3,16.1,48,25.1,36.5,36.5C25.1,48,16.1,61.3,9.8,76.2C3.3,91.6,0,107.9,0,124.7s3.3,33.2,9.8,48.5
		c6.3,14.9,15.3,28.2,26.7,39.7c11.5,11.5,24.8,20.5,39.7,26.7c15.4,6.5,31.7,9.8,48.5,9.8c16.8,0,33.2-3.3,48.5-9.8
		c14.9-6.3,28.2-15.3,39.7-26.7c11.5-11.5,20.5-24.8,26.7-39.7c6.5-15.4,9.8-31.7,9.8-48.5S246.2,91.6,239.7,76.2L239.7,76.2z
		 M230.1,169.3c-5.8,13.6-14,25.9-24.5,36.4c-10.5,10.5-22.7,18.7-36.4,24.5c-14.1,6-29.1,9-44.5,9c-15.4,0-30.4-3-44.5-9
		c-13.6-5.8-25.9-14-36.4-24.5c-10.5-10.5-18.7-22.7-24.5-36.4c-6-14.1-9-29.1-9-44.5s3-30.4,9-44.5c5.8-13.6,14-25.9,24.5-36.4
		c10.5-10.5,22.7-18.7,36.3-24.5c14.1-6,29.1-9,44.5-9c15.4,0,30.4,3,44.5,9c13.6,5.8,25.9,14,36.4,24.5
		c10.5,10.5,18.7,22.7,24.5,36.4c6,14.1,9,29.1,9,44.5C239.1,140.2,236.1,155.1,230.1,169.3L230.1,169.3z"/>
</g>
</svg>
