<!-- Generator: Adobe Illustrator 19.0.0, SVG Export Plug-In  -->
<svg version="1.1"
	 xmlns="http://www.w3.org/2000/svg" xmlns:xlink="http://www.w3.org/1999/xlink" xmlns:a="http://ns.adobe.com/AdobeSVGViewerExtensions/3.0/"
	 x="0px" y="0px" width="216.8px" height="216.8px" viewBox="0 0 216.8 216.8" style="enable-background:new 0 0 216.8 216.8;"
	 xml:space="preserve">
<style type="text/css">
	.st0{fill-rule:evenodd;clip-rule:evenodd;fill:#FFFFFF;}
</style>
<defs>
</defs>
<g>
	<path class="st0" d="M193.3,193.3c-7.1,7.1-16.5,11-26.6,11c-10,0-19.5-3.9-26.6-11c-7.1-7.1-11-16.5-11-26.6v-37.6h37.6
		c10,0,19.5,3.9,26.6,11c7.1,7.1,11,16.5,11,26.6C204.3,176.8,200.4,186.2,193.3,193.3 M166.7,116.7H128c-6.2,0-11.3,5-11.3,11.3
		v38.8c0,27.6,22.4,50.1,50.1,50.1c27.6,0,50.1-22.4,50.1-50.1C216.8,139.1,194.4,116.7,166.7,116.7 M129.4,49.6
		c0-10.1,3.9-19.6,11.1-26.7c7.1-7.1,16.6-11.1,26.7-11.1c10.1,0,19.6,3.9,26.7,11.1C201.1,30,205,39.5,205,49.6
		c0,10.1-3.9,19.6-11.1,26.7c-7.1,7.1-16.6,11.1-26.7,11.1h-37.8V49.6 M128,100.1h38.8c27.6,0,50.1-22.4,50.1-50.1
		c0-27.6-22.4-50.1-50.1-50.1c-27.6,0-50.1,22.4-50.1,50.1v38.8C116.7,95.1,121.7,100.1,128,100.1 M23.1,23.1
		C30.3,15.9,39.9,12,50,12c10.2,0,19.7,4,26.9,11.2c7.2,7.2,11.2,16.8,11.2,26.9v38.1H50c-10.2,0-19.7-4-26.9-11.2
		C15.9,69.8,12,60.2,12,50C12,39.9,15.9,30.3,23.1,23.1 M50.1,100.1h38.8c6.2,0,11.3-5.1,11.3-11.3V50.1C100.1,22.4,77.7,0,50.1,0
		C22.4,0,0,22.4,0,50.1C0,77.7,22.4,100.1,50.1,100.1 M87.5,166.6c0,10-3.9,19.3-10.9,26.4c-7,7-16.4,10.9-26.4,10.9
		c-10,0-19.3-3.9-26.4-10.9c-7-7-10.9-16.4-10.9-26.4c0-10,3.9-19.3,10.9-26.4c7-7,16.4-10.9,26.4-10.9h37.3V166.6 M88.8,116.7H50.1
		C22.4,116.7,0,139.1,0,166.7c0,27.6,22.4,50.1,50.1,50.1c27.6,0,50.1-22.4,50.1-50.1V128C100.1,121.7,95.1,116.7,88.8,116.7
		L88.8,116.7z"/>
</g>
</svg>
