<!-- Generator: Adobe Illustrator 19.0.0, SVG Export Plug-In  -->
<svg version="1.1"
	 xmlns="http://www.w3.org/2000/svg" xmlns:xlink="http://www.w3.org/1999/xlink" xmlns:a="http://ns.adobe.com/AdobeSVGViewerExtensions/3.0/"
	 x="0px" y="0px" width="1406.2px" height="809.8px" viewBox="0 0 1406.2 809.8" style="enable-background:new 0 0 1406.2 809.8;"
	 xml:space="preserve">
<style type="text/css">
	.st0{fill:#01ABF5;}
	.st1{fill:#4BC5EF;}
	.st2{fill:#57D1F7;}
	.st3{fill:#D9E2E8;}
	.st4{fill:#FF6464;}
	.st5{fill:#A9D86C;}
	.st6{fill:#FF8E61;}
	.st7{clip-path:url(#SVGID_2_);}
	.st8{clip-path:url(#SVGID_4_);}
</style>
<defs>
</defs>
<path class="st0" d="M861.9,498l1.7-1.9l0,0l0,0v-0.2l-6-4.8c-3.1-2.2-5.8-2.9-7.7-2.6l-2.6,1v5.1c-0.5,1.7-1.2,3.6-2.9,5.1l-1,1
	l2.4,2.9h0.2l0.7,1.9l2.9,1.2c1.7-1.2,2.9-1.7,4.1-1.4l5.1,1l0.2-1.7C859.3,500.9,860.5,499,861.9,498z"/>
<path class="st1" d="M756.5,304.5l-0.7-0.5c-1.2,0-2.4,1.2-3.6,3.9l-0.7-0.5l-0.2,0.2l0.2,0.2l-2.2,2.2l-1,0.5l-2.6,1.4l-0.2,1.7
	c0.2,2.7-0.5,4.6-1.7,5.3l-1,2.9c-0.2,0.7-0.5,2.6-0.2,5.3l1.4,7.2c0.5,1,1.7,2.2,4.1,3.1l5.5,1.4c1.4,0,3.4-0.7,5.5-2.2l-1.4-2.6
	v-0.5v-0.2l0.5-2.2V331l2.6-4.8h4.6l1.2-0.2c-0.5-1.4-1.9-4.1-4.6-7.5l-1.7-2.4c-1-1.9-1.9-4.1-2.2-7
	C757.7,306.9,757,305.5,756.5,304.5z"/>
<path class="st1" d="M734.6,295.4l-0.5,0.7l-0.7-0.2l-3.1-0.5l-0.2,1.4v0.7h-0.7l-5,1.9l-0.2,0.7c-0.7,1.7,0,3.1,1.7,5.1l0.5,0.5
	l-0.5,0.7c-1.4,2.4-3.6,4.8-6,6.5c-1,0.7-1.2,1.4-1.2,2.2l1.7,2.2l2.6,1l2.2,0.2c2.9,0,4.8,0.2,5.5,1.4l2.4,1.7
	c1.7,0.7,3.1,1.2,4.3,1.2c1,0,2.2-0.7,3.1-2.6l1.9-2.2l1.4-4.6l-1.2-5.3l1.9,0.5l3.1,0.2l1.4-1l0.5-1.2l-2.4-7l0.7-2.4
	c0.7-1.4,1.7-1.9,2.6-2.2h0.2l-0.5-1.7l-5.8,0.2v-0.2l-5.3-3.6c-2.2-1.4-4.3-1.7-6.3-1.2l-0.7,0.5c-0.5,1,0,1.9,1.4,2.4
	C734.9,292.5,735.3,293.7,734.6,295.4z"/>
<path class="st2" d="M492.1,341.6h-3.8l-1.2,2.6l2.2,2.2v0.2v0.2l1,3.1l0.2,0.2v0.7l-0.5,0.2l-5.3,2.6l-0.2,0.2l0,0h-0.2h-0.2
	c-4.1-0.5-6.3-1.7-7-3.4l-1.4-2.9l-7.2-1.4l-1.9-9.1c-1.4-0.2-2.6-1-3.4-1.9l-0.2-0.5c-1.2-1.7-2.2-2.7-3.6-2.9
	c-1.9-0.7-3.6-2.2-5-4.3l-2.9-1.7h-0.2l0,0l0,0l-3.9-3.9l0,0l-1-3.4v-0.2l7.7-10.6c0.2-0.7,0.5-1.2,0.2-1.4l-1.4-3.4l-4.1,1.7h-0.2
	v0.2H448l-10.6,0.7l-4.1,1l-1.4,1.4l-0.7,1.4c-1,1.2-2.4,1.9-4.6,1.4l0,0l-0.2-0.2l-3.6-2.7l-0.2-6c-1.9-1.4-3.1-2.9-3.6-4.1l-1-5.3
	l-2.4-2.9l-2.6-2.2l-1.2-0.7l4.3-5.5l1-3.1l-4.8-6h-0.2v-0.2l-2.2-4.8V267l0,0l-0.5-2.4l-3.1-2.4v-0.2l0,0l0,0l-3.4-3.6l-4.3-0.7
	l-4.8,1.4l-0.7,1l-0.7,6.7v7.5l-0.7,0.2l-4.6,1.7l0,0v0.2l0,0l-4.3,0.2c-2.2,1.2-4.6,2.4-7.2,3.4l-0.5,0.2l0,0h-0.2l-8.2-1.9
	l-3.4,3.6c-0.7,1-2.4,1.9-4.6,2.4l-5.1,4.1l-2.7,4.1v0.2l-0.2,0.2c-1.4,2.2-2.6,3.8-3.6,4.6l-2.9,3.6v0.2l-0.2,0.2l-1.7,1.2
	c-1.2,0.5-2.4,0.7-3.4,0.7l-6-0.5l-1.4,2.2l-2.2,3.9l1,3.8l-0.5,9.4l1.7,2.9v0.2l0.7,2.2h3.4l5.8,1.2l7.5,0.5l3.4-0.5h0.5h0.2
	l6.5,2.4l0,0h0.2l3.4,2.6l7.2,2.6h0.2l4.8,2.9l11.8,10.8l5.3,2.4l2.2-1l2.2-4.1l-1.2-6.5c0-1.9,1.4-3.1,4.3-4.3l0.5-0.2l14.7,8.7
	l1.7-0.5l3.4-1.9h0.5l1.9,0.2l2.9-2.4l0.5-0.2l0.7,0.5l8.7,6l0.2,0.2l5.5,4.6c1.4,1,3.4,2.6,5,5.1l2.6,2.9l2.2-0.2l2.4-4.6l5.1,3.6
	h0.2h0.2l0,0l4.1,5.1l10.8,8.2l0,0l3.1,3.6l9.4-2.7l0.5,7l4.1,4.1l0,0v0.2l3.4,5.1v0.2v0.2v0.2l3.6,16.6l3.6,6.7l-4.8,12.3v0.7
	l-4.1,1v3.6l-0.2,0.2l-4.1,6.7h-0.5l-5.8,0.5l-5.8,4.8c0.7,0.7,1.7,1.2,3.4,1.9c2.4,0.7,2.6,2.7,1.4,6v0.2l-4.1,4.1h-0.2l-0.2,0.5
	h-0.2h-0.2l-11.6-1.7l-0.2,4.1l1.2,8.7l9.6,4.1v0.5l0,0l3.6-1.2l0.2-0.2l0.5-0.2l0.2,0.5h0.2l2.6,1.4h4.1l1.5-0.2l-1.5-4.6l0,0l0,0
	l-1-4.8v-0.2v-0.5l0.2-0.2v-0.2l1.4-1.7l0.5-0.5l0,0l0.2-0.2l2.6-3.6l0.2-0.2l4.3-3.4h0.2v-0.2h0.2l0,0l5.3-0.7v1.4
	c0,1.7,0.2,2.9,0.5,3.6l1,2.2l1.4,3.1l4.8,2.6l13.2,1.2h0.5h0.7v0.7v0.5l-0.5,4.3l3.9,4.1l2.9,1.2l0.5,0.2v0.3l0.2,0.5v1.7v2.4
	l-1.2,4.8l1.7,1.2c1.9-0.2,3.6-0.2,5.3,1l5.5,2.6l3.4-2.6l3.6-3.9l0.2-1.7l0.2-0.5l0.5-0.2l0.5-0.5V480l-1.2-5.1l-0.2-2.6l-0.2-0.2
	v-0.2l0.2-0.2v-0.2l1.9-3.1l0.2-0.2l0,0l3.8-2.6h0.2h7.9l1.2-0.5l-0.2-4.1l-1.2-3.6l-2.6-4.3l-0.2-0.2v-0.2v-6V446l0,0l1.4-3.6l0,0
	l0.2-0.2l0,0l6.5-9.4l0.2-0.2h0.2l0.5-0.2h1.4l2.4,0.2l5.5,3.1l3.6,1l0.5-1.7l-0.7-0.5v-0.7c0-1.4,0.7-2.6,2.2-3.8l4.3-3.1l0.2-0.2
	l0,0v-0.2c2.4-0.7,3.9-1.2,4.8-1.2l3.8-0.5h0.5l0,0l2.4,0.5l1.7-6V415c0-2.7,0-4.3,0.7-4.8l1.7-3.1l-2.2-2.9l-2.9-1.9l-6-1.7
	c-1.2,0-3.4-1.2-7-4.3l-3.6-1.7h-0.2l-0.2-0.2L577,389h-4.1l-0.2-0.2h-0.2l-3.6-1.9l-2.2,2.9l-0.5,11.3l0.7,4.3h1.7l0.2,0.2l3.4,1
	v0.2v0.2l1.7,4.1h0.2v0.2l0,0v0.2l-1,7.5v0.5v0.2l-0.2,0.2c-1.2,0.7-2.2,1.2-3.4,1.9l-0.5,0.2l-0.2-0.2h-0.2l-1.7-0.5l-3.9,1.4h-0.2
	l0.2,0.7l0.2,0.2l0.7,6.5c0,1-0.5,1.4-1.4,1.7h-2.9c-1.4-0.2-2.2-0.7-2.9-1.4l-2.9-2.2l-0.2-0.2h-0.2V428l-1.7-4.1
	c-0.5-0.5-1.7-1.2-4.1-1.9h-0.2h-0.2l-3.4-2.4h-0.5v-0.5l0,0l-1-4.1l0.5-3.1h0.2v-0.2l0,0l1.4-1.7v-1.2l-1.4-4.3l-3.4-3.1v-0.5
	l-1-9.9l-2.4-2.4h-0.2l-0.2-0.2l0,0l-1.9-4.6l-8.7-1c-2.2-0.7-3.6-2.2-4.6-4.1h-3.8c-1.4-0.5-2.9-1.4-4.6-3.1l-0.5-0.5
	c-1-1-1.9-2.4-2.9-4.3l0,0l-0.2-0.2l-0.7-3.9l0,0v-0.2v-0.2l0,0l1.4-7.5v-0.2l1.4-3.1v-0.2v-0.2h0.2l9.1-3.8l3.6-4.3l0.7-3.6
	l-0.5-2.6c-1.4-3.1-2.4-5.1-2.4-6.3l-1.9,0.2l-3.4-0.2c-0.7,0.2-2.6,2.4-5.3,5.5l-4.1,3.9h-0.2l-0.2,0.2c-3.1,0.7-5.3,1.2-6.5,0.7
	L492.1,341.6z"/>
<path class="st3" d="M582.8,372.9l-1.4-0.2l-2.4,14.7l4.1,4.8l3.9,1.7l0,0h0.2l0.2,0.2l5,4.1l7,1.7h0.2l3.6,2.4h0.2l0,0v0.5l2.6,3.8
	l0.5,0.5l-0.2,0.5l-2.4,3.9c-0.5,0.5-0.5,1.7-0.5,3.6h0.2v4.6l-0.2,0.2l0,0l-2.2,7.2l-0.2,1.2h-0.5l-0.7-0.2l-3.1-0.7l-4.1,0.2
	l-3.6,1.2l-4.1,3.4l-1,1l5.3,2.6l-0.5,1c-0.2,1.2-1.4,2.4-3.4,3.1l-3.4,0.2l-5.5-2.2l0,0l0,0l-5.1-2.9h-2.2l-6,8.7l-1.2,2.9v5.1
	l2.4,4.1v0.2l0,0l0,0l1.4,3.8v0.5l0.2,5.5v0.7l0.2,0.5l-3.8,0.7h-7.2l-3.4,2.2l-1.4,2.4l0.2,0.2l1.4,7.2h0.2v2.9l1.7,3.4l5.1,3.4
	l7.5-1.7l3.6-2.4l0.5-0.2h3.4l1.9,4.6c1.2,1.2,2.2,2.4,2.6,3.8l1.7-0.2h0.5h0.5l0.2-0.5l3.4-2.6l3.1,5.5l3.4,2.2h4.8l3.6-0.5h0.7
	l8.7,1.2h0.2v0.2l3.6,2.2l0,0l0,0v0.2l3.1,2.4v0.2l2.2,2.4l2.4,1l3.8-0.5v-5.1l-1.9-3.4h-0.2V498l-1.4-6.3l3.4-3.4l0.2-0.2h0.2
	l2.9-0.5h3.1l1-1.2l-1.9-2.6l-7-4.6l-1.7-2.6l-0.2-0.2l-0.2-0.2l0.2-0.5l1.9-3.6l0.5,0.5l4.8,1.2l12.8-0.5l0.2,0.2h0.2l3.6,1.2
	l2.4-2.2l-1.2-7.5l-4.6-2.9c-3.9-2.2-5.1-7.5-4.3-16.1l-3.8-1.9l-0.5-0.2h-0.5v-0.5v-0.2l-0.7-6.3l5.3-24.6
	c-2.2-7.2-3.4-12-3.4-14.4l-0.5-7.2l0.5-7.9v-0.5l0.5-0.5l0,0l4.8-3.6v-3.8c0-1-0.5-2.4-1.7-4.3l-3.1-3.4h-0.5v-0.7l-0.5-5.8v-0.2
	l-0.2-0.2l0.5-0.2v-0.2l6.3-7.9v-3.4l-1.9-3.6V344l-0.2-0.5l3.1-3.9v-0.2h0.2l3.4-2.6l-0.5-3.1h-1.7l-2.6-0.5l-1.4,5.8l-0.7-0.2
	l-6.2-2.4l-3.8-0.7l1.4,6l-5.3,1.7l-7.7,4.1l-2.4,3.1l0,0v0.2h-0.2l-4.1,3.6l-0.7,5.8v0.5l-2.2,8.2h0.2l-1,3.8v0.2l0,0l-0.2,0.2
	l-2.6,3.6h-0.2v0.2l-0.2,0.2h-0.2l-5.8,0.7l0,0v0.2l-0.2-0.2l0,0l-8.7-2.9l-0.2-0.2L582.8,372.9z"/>
<path class="st0" d="M707.9,564.4l0.2-0.2h-0.5v-0.5l-1.9-3.6l-0.2-0.2v-0.5l0.5-5.8c0-0.7-0.7-1.5-2.2-2.4h-1.4l-2.4,2.9h-0.2l0,0
	l-6,2.9l-1-4.1v-0.5l0.5-1.9l-0.5-2.4l-0.7-0.2l-1,1.9h-0.2v0.2l-7.5,6.5l-0.2,0.5h-0.2h-0.5h-0.5l-2.2-1l-0.2-0.2l-2.4-2.2
	l-3.8-1.5l0,0l-0.2-0.2l-2.4-1.7l-7.9-1.7l0,0h-0.2l-5.3-2.7v0.2l-4.1-1.9l-5.3-0.5l-1.9,0.2l1.7,8.9h-0.7l-5.3,0.5h-2.9h-0.2l0,0
	l-2.9-1.9l-4.8,2.2l-4.3,5.8l-3.9,10.3l1.2,11.3l1.7,6.5c0.2,0.7,0.2,1,0,1.2l-0.7,0.2c-1.2,0.7-1.7,2.4-1.4,4.8l2.4,9.9l-0.7,0.5
	c-4.3,2.4-6.5,4.3-6.7,5.3l-0.5,3.4l4.1-1.7l0.2-0.3h0.2c2.9,0,4.6,1,4.8,3.4l0.7,5.3l-0.2,0.7l-0.5,0.5c-0.7,0.7-1.2,1.4-1.2,2.4
	l-0.7,5.5c0.2,1.9,1,3.4,1.9,4.1l5.1,6l4.6-3.6l3.6-0.5h0.2l0.2,0.5l2.4,0.7c0.7,0,1.4-0.2,2.2-1l2.2-3.1l-0.5-1.9
	c0.5-0.7,1.2-1.2,2.2-1.7h5.8c1,0.5,1.7,0.2,1.7-0.2c0.7-1.7,1.4-2.4,2.2-2.9c0.7,0,1.9,0.2,2.6,1c1.7,1.4,2.9,2.6,2.9,4.3l-0.5,4.3
	l1,0.7c1.4,1.2,2.4,2.4,2.4,3.4l-1,4.3c-0.7,2.4-1.4,4.1-2.4,4.6v-0.2l-3.6,7.7l1.2,0.5l5.8,0.2l1.2,0.5l-0.5,1
	c-0.7,2.4-1,4.1-0.7,5.3c1.9,1.2,3.1,1.9,3.9,1.2l3.4-1.4l1.7-0.7h3.1l3.1-3.4v-4.1c-0.2-1.4,0-2.4,0.5-3.1c1-0.7,2.9-0.7,5.8,1
	l5.8,3.6c1.9,1.4,3.4,1.9,4.3,1.9v-0.2c0.5-1,0-2.9-1.2-5.3l-3.1-4.8v-0.5h0.2l0.2-0.5c3.1-4.3,6.5-5.8,10.3-4.3l8.9,4.1l3.6-2.4
	h0.2v-0.2v-0.2l-0.5-0.5l0.2-0.2l0.2-0.5c2.9-4.8,3.9-8.4,2.9-10.3c-0.7-1.7-1.9-2.4-2.9-2.4h-0.7l-0.5-2.4h0.5
	c1.7-0.7,2.7-1.4,2.9-2.4l-0.7-1.2l-3.9-3.6l0,0v-0.2l-1.9-5.3c-0.7-4.1-1.2-7.7-0.7-11.1v-2.4l-2.4,2.2l-2.2,2.4l-0.7-10.1l0,0
	v-0.5h0.2c5.3-7.7,8.9-12.3,10.1-13.5l-2.4-7.2c-0.7-3.6-1.2-5.8-1.2-6.7l-4.3-1.9L707.9,564.4z"/>
<path class="st0" d="M624.2,475.1l-0.2,1l1.2,1.5l6.3,4.3l0,0v0.2h0.2l3.9,4.3l-0.5,0.5l-2.4,2.9l-0.2,0.2l-0.2,0.5H628l-2.4,0.2
	l-1.7,1.7l0.7,2.2v0.2l0.2,2.4l2.2,3.1v0.2v6.7l1.9,0.7l3.4,1h0.2l0,0l0.2,0.2l0.2,0.2l3.1,4.3v0.2l0,0l1.7,4.3v0.2l0,0v2.9
	c-0.2,1.7-0.7,3.1-1.2,4.1c-1.2,1.7-3.4,3.1-6.7,4.6l-8.2,4.8h-0.2l-14.9,1l-1,3.6l2.7,4.8v0.2v0.2l0.7,6.3l8.2,9.6h0.2l0,0v0.2
	l3.4,5.5l0.2-0.7v-0.2l2.6-7.5l0,0l0.2-0.2l0,0l4.8-6.3l0.2-0.2l6-2.9h0.5l3.9,2.4l5.1-0.5l-1.7-8.4l1-0.2l4.6-0.5l4.8,0.2h0.5v0.2
	l9.6,4.3l8.2,1.7h0.2l0,0h0.2l2.6,1.9l3.8,1.4v0.3l0,0l0,0l0,0l2.4,2.2l1.4,0.5l2.6-2.4v-0.2l4.1-3.1l2.2-4.1l3.8,2.2v0.2v0.2l1,3.1
	v0.7l-0.5,1.9l0.2,0.5l2.4-1.2l3.4-3.4h3.1v0.2h0.2l2.2,1.4c1.4,1.4,1.9,2.7,1.4,3.8l-0.2,5.3l1.4,2.6l0.5,0.2
	c5.8-6.3,9.6-9.4,12-9.4h6.5l1.4-3.1l5-2.4h0.2l6.3-0.5l6.5-3.4v-0.2h4.1l-0.7-1.9l0.2-0.5l1-1l-8.9-19v-0.5l-0.2-0.2l3.9-5.3
	l-1.2-1.2l-6.5-1.2H739l0,0V512l-4.1-4.3l0.2-1l-0.2,0.2l-0.2,0.2l-3.6-2.4c-1.7,2.2-3.4,3.6-5.3,4.1c-1.7,0.7-4.3-1.2-7.9-5.5
	l-1.9-2.4c-0.2-0.5-1.9,0-4.6,1c-4.1,1.4-6.7,1.7-7.9,1c-1.2-1.2-1.7-3.6-1.2-6.7c0.2-2.6,0-4.1-0.5-4.8l-31.3-1.7
	c-2.9-1.2-5.3-2.4-6.5-3.6l-4.8-1.2c-1.9-0.7-5.5-3.9-10.3-9.9l-3.1,2.7l-4.8-1.5l-13,0.2l0,0l0,0L624.2,475.1z"/>
<path class="st4" d="M664.4,432.8h-0.2l-18.3,7.5l-5.5,5.3c-1,8.2,0,13,2.9,14.4l5.3,3.4h0.2v0.2l1.4,8.9c4.6,6,7.7,9.1,9.4,9.9
	l5.3,1.2l0.7,0.2v0.2c0.7,1,2.4,1.9,5.5,2.9l14.4,0.7c10.6,0,16.6,0.7,17.8,1.9c1.2,1,1.4,3.4,1.2,7c-0.2,2.4,0,3.8,0.2,4.1l5.3-1.2
	c4.1-1.4,6.5-1.4,7.7-0.2l1.9,2.4c2.9,3.6,4.8,5.1,5.3,4.8c1.4-0.5,3.1-1.9,4.8-4.3l0.5-0.7l4.3,2.7l2.6-2.2
	c0.7-3.4,2.4-5.1,5.3-5.3l1.2-0.5l-0.5-1l-0.5-0.5l0.2-0.2l0.2-6c-1.9-2.9-4.3-3.9-7-3.4c-2.6,0.7-4.6,0.7-5.3-0.2
	c-0.5-0.7-0.5-1.2-0.5-2.2c-1.7-2.9-3.4-5.3-5.5-7.5c-2.9-2.4-3.6-4.6-2.9-6.7l0.5-0.7l6.7,1.2l-0.5-4.1c-0.2-2.4,0-4.1,1.2-5.3
	c0.5-1,1.7-1.5,2.9-1.7l2.9-1v-1.2c-2.2-4.6-2.9-7.9-1.9-9.4l1.4-1.2c0.7-0.2,3.1,0.2,6.5,1.4l0,0l0.2,0.2v0.5
	c2.6,3.1,4.1,5.1,4.8,5.5l4.6-7.5c-4.1-5.1-6.3-8.7-7-10.1l-3.6,2.4l-0.5-0.5l-9.6-2.4h-0.2v-0.2c-4.1-1.9-6.5-4.1-6.7-6.3l-5.8-2.6
	V420l10.6-6.3c-0.5-2.9-1.2-5.8-2.4-8.2l-1.7-3.4l-7.2,0.7c-3.4,1.4-6.5,2.2-9.6,2.2l-7.5-1.7v-2.7l-1.2-0.2l-2.2-0.7l-0.5-1.4l0,0
	v-0.2l0,0l0,0l-0.2-0.7v-0.2v-0.7l-0.5,0.2l-0.5,6.3l-0.2,2.2c-0.5,1.2-1,1.9-0.5,2.4c1.2,1.7,1,3.6-0.3,5.3l1,4.1l-0.2,0.2
	l-0.5,0.2l-2.9,2.6v5.5l-0.7,0.2c-5.3,2.4-8.9,3.6-11.1,3.6l-10.6-0.7l-4.6,4.1H664.4z"/>
<path class="st2" d="M832.1,47.9l-1.7-5.3l-4.3-7.5l-3.6-1.9l-3.6,1.9l-2.2,4.3l-0.2,0.5h-0.5h-0.2l-6.7,1.2
	c-0.7,0.5-1.4,0.7-1.9,1.4l-1.4,1.7l-3.6,2.9l-1,0.5l-3.1,0.5c-1.5-0.2-3.6-1.4-6.5-3.6l-0.2-0.2c-4.8-4.8-7.2-8.2-7.2-10.1V28v-0.2
	v-0.2l0.7-1.2l-7-2.4l-0.2,2.4c0,0.7-0.7,1.7-1.9,2.4l-2.4,1l-1-0.2v-0.2l-3.6-0.7l0.7,2.6L763,27h-0.2l-0.2-0.2l0,0
	c-1-2.6-1.4-5.3-1.4-8.2c0-2.4,0.2-3.9,1.2-4.8l1.4-2.6L763.3,9l-6.3,1c-3.1,0.2-5.3,2.2-6.5,5.8v0.2l0,0l-3.6,5.5l3.6-0.2h0.2
	L751,21l0.2,0.5l2.9,1.2h0.5l0.5,0.2v0.7l0.5,5l1.4,4.8v0.2V34v0.2l-7.9,15.6c-1.4,2.2-2.2,7.9-2.6,16.6v0.7l-3.1,6l2.2,2.4v0.5
	c0.2,3.6,0,5.8-1,6.3l-0.7,0.2c-1.7,1-7.2,6.7-16.1,17.6l-0.7,0.7l-0.5-0.2l-0.7-0.5c-3.1-2.2-6-4.1-7.7-6c-1.4-1-5.1-1.7-11.1-1.7
	l-0.2,11.1l-0.2,0.2l-4.3,20.9c-1,2.7-1.2,7.5-1.2,14.7l1.7,2.2l1.4-2.9h0.2l0.2-0.5l5.5-2.9l15.4,2.4l1.7-1.9l2.2-3.9l0.5-0.2l0,0
	l0.2-0.2l6-1.2l7.9-0.5c2.4,0.5,5.3,3.6,8.9,8.4c9.6,4.8,14.9,9.1,16.1,13c0.7,1.9,0.7,3.4,0,5.1c-0.7,1.7-2.4,2.6-4.8,2.9H764
	c-11.8-0.5-18.5-0.5-20.9,0.2l-5.8,3.9c-7.2,5.3-12,7.9-14.7,7.9l-4.8,0.7l-2.9,12c-0.7,3.6-1.9,6-4.1,7.7c-1.9,1.9-4.8,3.1-8.7,3.8
	c-4.6,0.7-8.4,2.4-12,4.6l-4.1,8.7l-0.2,0.2h-0.2h-0.2l-11.1,4.6h-0.7l-5.5-1.2c-4.3-0.7-7.7-1.9-9.9-3.4c-2.9-1.4-6-1.7-9.4-0.7
	c-2.9,4.1-4.3,9.1-4.1,14.7c0.2,2.9,1,4.8,1.7,5.3l1.7-0.2l1.9-1.2l0.5,7.7c0,2.6-1,4.6-2.9,6c-1.2,1-3.4,1.9-6.5,2.9l-1.9,0.5
	c-2.4,1-7.5,7.5-14.9,19.2v0.2h-0.2l-7.2,4.3c1.2,0,1.9,0.5,1.7,1.4c-0.2,1-1,1.2-2.9,1.4l-20.5-0.5c-22.9-0.7-40.7,5.5-53.4,18.5
	l-0.2,0.2l-0.5,0.2h-0.2l-8.4,1l-0.5,0.2h-0.5l-2.4-5.8l-8.7,2.2c-4.6,0.2-10.6-1-17.3-4.3c-6.3-2.6-11.8-6.3-17.3-10.6
	c-3.6-2.9-8.2-4.8-13.5-5.8l-7.7-0.7l-8.7,1.2c-6.3,1-12.5,1-18.3,0.5c-7-0.5-15.4-2.4-25.5-5.5l-0.7,1.4h0.2h0.2l0.2,0.2v0.2
	l0.2,2.4l2.2,4.6l5.1,6.3l0.2,0.7l-1,4.6v0.2h-0.2l-2.9,3.9l3.1,3.1c1.2,1.2,1.9,2.2,1.9,3.1l0.7,4.6l3.6,3.6v0.5l0.5,3.1v2.4
	l2.2,1.7l1.4-0.5l0.2-0.7c0.7-1.9,1.9-2.9,3.6-3.1l1.9-0.7l12.8-1.2l5.1-1.9l0.5-0.2l0.7-0.5l2.7,5.8h0.2l0,0c0.2,1.4,0,2.6-0.7,3.8
	l-7,9.9l0.5,1.7l3.1,3.1l3.1,1.9h0.2c1.4,1.9,2.6,3.1,4.1,3.6c1.7,0.5,3.4,1.9,4.8,3.8l0.2,0.7l2.4,1l0.7,0.2h0.2l0.7,2.6l0,0
	l0.2,2.6l1,3.9l6,1h0.5l0.2,0.2v0.2l0.2,0.5l1.7,3.4l4.8,1.7l3.4-1.7l-0.5-1.9l-3.1-2.9l0.5-0.5v-0.5l2.6-5.1h5.8l0.2,0.2l8.2,2.9
	l4.6-0.7l3.6-3.4c4.1-5.1,6.7-7.2,8.4-6l1.9-0.2c2.2,0,3.4,0.2,4.1,0.5c0.2,0.5,0.5,1,0.5,1.4c0,1,1,2.9,2.4,5.5v0.2v0.2l0.7,3.4
	v0.7l-1,3.8l0,0v0.2l-0.2,0.2l-4.1,4.8l-0.2,0.2l0,0l-8.7,3.9l-1.2,2.4l-1.2,7l0.7,3.4l2.2,3.6l1,0.7l2.9,1.9h10.1l8.4-1.2l1.2-1.2
	c1.2-1.4,2.4-1.9,3.1-1.9l5.8,1l0.5-1c-0.5-1.7-0.5-3.1,0.5-4.6l2.4-4.1v-7.7v-0.2l4.3-12.5l0.2-0.2v-0.2h0.2v-0.2l7.5-6l0.5-0.5
	l6.5,2.9l0,0c3.4,2.4,5,4.3,5,5.5l-0.5,5.3l-2.2,3.4l-1.7,4.8v5.3l1.7,2.4l2.2-0.2l0.5-0.2l3.6,0.2c1.9,1,3.1,2.6,4.1,5.1l2.2,0.7
	h0.2l0,0h0.2l8.2,3.8l3.6,1.2l5.1-0.7l2.2-2.9l2.9-11.8l0.2-6.5v-0.5l0.5-0.2l0.2-0.2l4.6-3.9l2.6-3.4l0.2-0.2l4.8-2.2l2.9-1.7
	l3.6-1.4l-1.9-7.2l8.2,1l0,0v0.2l0,0l4.3,1.7l0,0v-0.2l1.2-4.6v-0.7l0.7,0.2h0.5l3.8,1h1.9l3.6-4.1h0.2l0.2-0.2h0.2l4.8-1l4.1-3.8
	l2.2-3.1v-3.9c0-1.4,0.7-2.4,2.2-3.1l0,0h0.5h0.2l4.6,0.5l1.9-1.2l0.7-3.4l4.8-1.4h0.2h0.2l0,0l6,0.7l4.8-1.2l2.9-2.9l1.9-3.8
	l-3.6-3.8v-0.2l0,0l-0.7-2.9l0,0l-1-4.3v-0.2l2.2-3.8c0-1.2,0.7-2.9,2.6-4.8l2.6-5.3v-0.2h0.2l2.4-3.8l3.6-7.2l3.4,4.8l0.2,0.2v0.2
	l1.2,4.8v0.2l0.7,4.8l3.4,1.4h0.2l0,0l0,0l1,0.5l0.2-0.2l2.9-5.1l1.7-4.8l0.7,0.2l0.7,0.2l7,2.4l3.4-2.6l0.2-0.2h0.5l3.4-0.2
	l2.4-4.1v-5.1l1.7-7.7l0.5,0.2h0.7l5.3,1.2l2.4-4.3h0.2h0.5l4.8-0.5h0.7v0.2l0.5,0.2l2.4,3.4v0.2l0.2,0.2v0.5l0.5,4.8l2.4,2.2
	l3.4-3.1l0.7,1c1.2,1.2,1.7,2.4,1.7,3.8v4.3l-1.7,4.3l1.2,1.9l2.4,2.6l10.1,1.4l0.2,0.2l0,0l0.5,0.2l0,0l0.7,0.7l2.9-4.1h0.2
	l2.4-2.4l-1-3.6l-2.6-15.4l7,3.4h0.3h0.2l3.1,3.9l1.9,1.9l2.9-1.9l10.1-11.1l0,0h0.2l3.6-2.7l4.1-5.8l0.2-0.5l5.5,1.4h2.6
	c0-2.2,0.5-3.6,0.7-4.6l4.1-4.8l1.2-0.7l4.8,1.7l5.8-0.7l3.9-4.1l1.9-3.6l-1.2-1.9l-3.4,1.7l-0.2-0.2l-0.2-0.2l-4.3-3.9l-0.2-0.2
	l1.7-6.5l0.5-4.8l-1.2-4.1l-3.4-1.2v-0.2l-0.2-0.2l-0.2-0.2l-2.9-5.8l-0.5-0.7l-4.1,4.8l-4.1,2.6l-1,0.5l-0.2-0.2l-0.3-0.5l-4.3-4.1
	v-0.2l-3.1-6.7v-0.2l-1.4-4.8v-0.2l0,0v-7.2l-0.5-4.3l-3.4-1.2h-0.2v-0.2l-7.7-6l0.5-0.7l3.6-3.9v-0.2v-0.2h0.5l0,0l4.1-0.5h0.2
	c1.2,0,2.4,0.7,3.4,1.9l3.4,2.7l3.6-2.9l2.6-3.6v-3.1l-1-7.7l-0.7-3.1l-5.3-1v-3.1l-4.8-6l-0.2-0.2l-2.4-4.3l-0.5-0.5v-0.5l0,0
	l5.3-7V123l0.2-0.2v-0.2h0.5l2.2-0.2l2.7-2.2l3.1-9.6h0.2v-0.2l3.9-4.3v-0.2h0.2h0.2l4.3-1.2v0.5l2.9,2.4l1,0.2l1.7-7.5l-1.7-5.3
	l-0.2-0.2v-0.5l0.7-6v-0.5l2.9-3.1l1.9-3.4l0.2-2.9c0-1.4-0.7-3.9-2.2-7.5l0,0l0,0V65v-0.2l1.2-5.1c-1-2.2-1.7-3.8-1.7-5.1
	L832.1,47.9z"/>
<path class="st1" d="M556.1,343.2l-4.3,12v7.9v0.2l-2.4,4.1l-0.5,2.9c0.5,1.7-0.2,3.1-1.9,4.1l-0.5,0.2h-0.2l-0.2-0.2l-6-0.7
	l-3.1,2.9l-9.1,1.4l0,0h-3.9l2.4,1.7l8.7,1h0.5h0.5l0.2,0.2v0.2l2.2,5.3l2.4,1.7c0.7,1,1.2,2.4,1.2,5.1l0.2,6.5l2.9,2.6h0.2v0.2h0.2
	l1.4,4.8v2.6l-1.7,2.4l-0.5,2.2l0.7,2.4l2.9,1.9c3.1,1.2,4.8,1.9,5.5,3.1l1.7,3.6c1.9,1,2.9,1.9,3.4,2.9l2.2,0.7h0.2l-1-5.3
	c-0.2-1.2-0.2-2.4,0.2-2.9c0.5-0.7,1-1.2,1.9-1.4l3.6-1.2l0,0l0.2-0.2h0.2l0.2,0.2l1.7,0.5l2.2-1.2v-0.5l0.7-6l-1.4-2.9l-1.9-1
	l-2.4-0.2h-0.5l-0.5-0.2l-1-6.3l0.2-12.3l0.5-0.5l3.6-5.1l5.3,2.9h3.1l2.4-15.6c-0.7-1.7-1.4-2.9-2.9-3.6l-1.4-0.2v0.2h-0.7
	l-3.8,0.7l-0.2-0.5l-0.2-0.2l-2.6-3.4v-0.2l-0.2-0.2v-6l1-3.4l1-1.4c0-1,0.2-1.9,1.2-3.1l1-1.2l0.2-4.1l-3.6-3.4l-4.8-2.4
	L556.1,343.2z"/>
<path class="st2" d="M391.7,256.6l0.2-0.2h0.2v-0.2l-7.7-21.9l-4.8-3.9v-0.5l-1.2-8.9l-10.1-1.4h-0.2h-0.5v-0.2l-0.2-0.5v-0.2
	c-1.2-3.4-4.3-7-9.1-10.8c-2.6-2.2-5.3-3.6-7.5-4.1c-1.7-1-3.4-1.7-4.6-2.6c-3.1-2.2-14-3.8-33-4.3h-0.7l0,0l-2.2-3.4
	c-1-2.2-1.7-4.1-1.9-6.3c0-2.6,3.1-11.3,9.9-25.5l-3.4-10.6l0,0l-3.6-16.8c-0.5-2.4-4.6-4.6-11.8-6.7c-1.4-0.5-2.9-1-4.3-1.9
	c-2.6-1.2-4.6-3.4-5.5-6c-1.4-3.1-3.9-5.8-7.2-7.2l-0.2-0.2l-0.2-0.2l-2.9-14.9L267.6,98l-1.2,3.1c-1.4,5.1-2.9,7.5-4.6,7.5
	l-7.5,2.4c-4.6,1.7-7.5,3.6-8.9,5.8c-0.7,1-1.4,3.9-1.9,7.7c-0.7,4.3-1.4,7.5-2.4,9.4c-1.4,3.1-3.6,5.5-7,6.7
	c-6.2,2.4-16.8-1.7-31.5-12l-19.7,25.3l2.4,10.3h0.2l0.2,0.5l-0.5,0.2v0.2c-1,1.4-2.4,2.4-4.1,2.6c-1.9,0.5-3.9-0.2-6-1.7
	c-1.9-1.4-7.5-2.6-16.4-3.1l-4.1-0.2l0,0l-6-0.5l-6.5,1.2l2.9,4.1c2.4,3.1,3.4,5.1,3.1,6.3l-2.7,15.6l1.2,8.4h0.2v0.2l-0.2,0.2l0,0
	L142,214c-0.2,1.4-0.7,2.2-1.2,1.9h-0.5v-0.2l-0.7-1.4c-1-1.9-1.4-2.6-2.2-2.4c-0.5,0.2-1.2,1.2-1.4,3.4c-1,4.3-3.6,7.9-7.7,11.8
	l-4.3,3.4l-2.2,1.2l0,0h-0.2l-15.6,0.2l-6,5.8h-0.2h-0.5h-0.2l-16.6-2.4c-2.6,2.9-5.3,3.8-7.9,3.4c-2.4-0.7-6.5,0.2-12.3,2.4
	l-6.7,7.9l-0.2,0.5l-10.6,0.2v-8.9h-6.7l-1.2,3.9l-5.1,1.2H31l0,0l-0.2-0.2h-0.2c-3.1-1.9-7-3.4-10.8-3.8c-2.2-0.2-4.8,1.2-8.7,4.6
	c-4.1,3.4-7,6.5-8.4,9.4c0.7,0.5,1.2,1.4,1.2,2.9c0.5,1.7,0.7,3.1,0.7,5.1c-0.2,1.9-1,3.1-1.9,4.1c-1.2,0.7-1.9,2.9-2.6,6.7l3.8,2.7
	l5.3-5.5l6.7,7.5v0.5l1.4,13.2v0.2h-0.2l-3.9,18.3h-1c-5.5,0-9.1,0.2-10.6,1.2c0.2,1.2,2.6,3.1,6.7,5.8l3.4-0.5h0.7l0.2,0.2l7.9,7.7
	c3.1,2.6,2.9,7.2-1.2,14l1.2,7.5l3.1,0.7h12.3l-6.3,5.8l3.6,1.9l0,0l4.8,2.6l13,5.5l0.2,0.2H52l1.2,19.7c0.2,3.8,3.1,6.7,8.9,8.7
	l1-0.5h0.2h0.2l13.5,1.9h1v-0.2l0.2-0.5c1.4-2.6,2.4-4.6,2.4-5v-0.5c-0.2-2.2,0.7-4.1,2.6-5.5c1.9-1.4,3.1-2.9,3.8-4.6l0.2-0.2
	c0.7-1.9,3.1-2.4,7.2-1.2h0.2l0,0l4.6,2.6l15.2,2.9l9.4-0.7l6.7-2.9c1.2-1.7,2.2-2.4,2.9-2.9c1.2-0.2,2.9,0.2,4.8,1.9l1,0.5
	c1,0.7,1.7,2.2,2.6,4.8l4.8,3.6h3.6h0.2h0.5h0.2l5.1,2.2l9.4-0.7l5.3-1.7l13.7,1.2l6-1.7l7-2.9c1.4-1,3.1-1.7,5.5-2.4h13.2l4.8-1.7
	c1.9-1.2,3.6-1.9,5.1-1.9h7.7l3.6,2.6l10.3,2.2c1.4,0,2.9,1.2,5.3,3.4l4.3,2.9l0.5,0.5l9.9,0.2l0,0h0.2l4.6,2.4l6,1.2h0.2l5.1,0.7
	l1.4-2.9l-2.2-4.8l-1-4.8v-0.2h-0.2l0.7-0.7l3.4-4.6V374l0,0h0.2v-0.2l3.4-2.4l0,0l-0.7-1.4l-1.4-4.8c0-0.7-0.7-1.2-2.2-2.2l0,0
	l-3.6-3.8l-4.6-3.9l-0.2-0.5l-0.5-0.2l0.2-0.2v-0.5l0.7-4.6v-3.4l-2.2-5.8l5.5-1.2l2.6-2.6h6.7l6.7-1h0.2l4.6,0.5l5.3-1.9l6-0.7
	l3.8-1.7h0.2l10.4-1.9l1.7-1.7l-0.5-1.9l-1.9-3.4v-0.2l-0.2-0.2v-0.2l0.5-3.6l0.2-0.2v-5.1l-1-4.3l0,0v-0.2l2.4-4.8
	c1-2.2,2.2-3.4,3.6-3.4l6.3,0.5c1,0,2.2-0.5,3.4-1.4l9.4-12.7v-0.2l0.2-0.2l5.1-4.1l0.5-0.5c1.9-0.5,3.1-1.2,3.9-1.7l1.2-1.2
	c1.7-2.2,3.1-3.1,4.1-3.1l8.2,1.7l7-3.4l0,0h0.2l0,0h0.2l4.1-0.5l3.4-1.4v-5.5l1-7V259l0,0v-0.2l1.2-1.9V256.6z"/>
<path class="st5" d="M399.9,338.9l-2.2,1.7c0,1,0.5,3.1,1.2,6.3v0.2l0.2,0.2H399l-2.6,6l-3.6,1.4L392,355h-0.2l-6.3-2.9h-0.2v-0.2
	L373.4,341l-4.6-2.6l-7.2-2.6v-0.2l0,0h-0.2l0,0l-3.4-2.4l-6-1.9l-3.4,0.2h-0.2l-7.7-0.5h-0.2l-5.5-1.2h-3.4l-2.6,1.9
	c-1.4,0.7-3.4,1-5.8,1.4l-5.1,1l-4.3,1.4l-0.2,0.2v0.2v-0.2l-5.3,0.5l-5.5,2.2l0,0H302l-4.6-0.5l-7,1h-5.8l-2.4,2.4H282l-2.9,0.7
	l1.2,2.9v4.6l-0.7,4.1l4.1,3.4h0.2l0,0l0,0l3.4,3.9c2.2,1.7,3.1,2.9,3.1,4.3l1.2,3.6l1.7,3.6c-0.2,0-0.2,0.2-0.5,0.2l-4.6,3.4
	l-3.1,4.1l0.7,3.6l2.2,5.1l0.2,0.5l0,0v0.3l-0.5,1.9c-0.5,1.2-1,2.2-1.7,2.6c-1.4,1.2-3.8,1.2-7.7,0l-6-1.2h-0.2l0,0h-0.2l-4.3-2.2
	l-7-0.2l0.2,0.2l-0.7,12c-0.2,1.7-1.4,2.4-3.1,2.6c-0.7,0.2-1.2,1.2-1,3.1v0.2h-0.2l-0.5,3.1c1.7,1.4,2.9,2.7,3.4,3.6l1.2,5.8v2.2
	c-0.2,1.2-0.5,2.2-1,3.1l-1.7,4.8l-3.1,6v1.2l0.5,2.9l3.1,4.1c1,1.2,1.4,1.9,1.7,2.6l2.9,4.1l4.3,4.8c1.7,1.7,2.9,2.4,3.4,2.4
	l4.6-2.9c1-0.7,1.7-1.2,2.9-1.2c1,0,2.4,0.7,4.6,2.2l0,0h0.2v0.3l2.4,2.9l1.2,2.9l1,1.2l0.7,0.5l3.1,2.2l1.7,0.2
	c1,0.2,1.9,1,2.6,1.9c0.5,0.7,3.1,1.7,7.7,2.9h0.2l7.2,2.7h0.2h0.2l5.1,2.4l8.7,2.2l0.2,0.2l11.3,0.5l5.1-1.9h4.6v0.2l0.2,0.2
	l3.8,4.8l0,0v0.2l2.4,3.9l1.9,2.2l2.6,1.2l0.2,0.2l0,0l0.2,0.2l2.2,4.8v0.2h0.2v0.2l1.2,5.3l3.4,1.2h0.2h0.2l0,0l2.6,1.7l3.6-0.7
	l1-3.6v-0.2l0.2-0.2l4.1-4.1l4.6,1.2v0.5l2.2,4.8l4.6-1.7l0.5-4.6v-0.2V496l0.2-0.2l3.1-1.7l-0.7-6.7v-0.5v-0.2l0,0l3.6-7.5l3.6-1.4
	l-1.4-6.7h3.6l-0.2-3.1l-1.9-6.5l0,0v-0.5l0.5-4.6v-0.7l0.5-0.2l2.4-3.1l0.5-0.5h0.7l6.5,1.2h0.2l5.3,1.4l4.6-1.4l2.6,5.3l0.2,0.2
	v3.9l0.7,3.6c0.5,1.4,1.4,2.4,2.4,2.7h0.5c2.2,0.5,3.4,1.4,3.6,2.9c0.2,1.2,1.2,2.9,2.9,4.8l2.2,3.1l0,0v0.2l1.4,2.6l2.2-0.2
	l4.1-3.6l2.6,5.5l5.3,1.7h0.2l0.2,0.2l2.6,4.8l1.2,0.7l0.2-4.6v-0.2v-0.7l10.6-0.2l0.2-1c0.2-0.5,0.2-1.4-0.2-2.2
	c-0.7-1.4-1-2.6-1.2-4.3c-0.2-1.9,0-3.4,0.5-3.9c0.7-1,1.2-1,2.4-0.7l4.3,1.4l0.5-3.1l-7.9-3.6H463l-0.2-0.5v-0.2v-0.2l-1.2-9.6
	l0.2-6V451v-0.5l13.2,1.7l3.4-3.1c0.7-1.2,0.5-2.2,0-2.4c-3.4-1.2-5.1-2.6-5.1-4.1c0-0.7,0.2-1.7,1.4-2.2l5.5-5.5l6-0.2l3.1-5.3
	v-5.1l4.6-1c1.2-3.6,1.9-5.5,2.4-6.3l1.9-4.1l-3.4-6v-0.2l0,0v-0.2l-2.2-8.2v-0.2l-1.4-8.4l-2.9-4.8l-4.3-4.3v-0.2V380l-0.2-0.2
	l-0.2-4.6l-7.9,2.4l-0.2-0.2l-3.6-4.1l-10.8-8.2h-0.2l-4.1-5.3l-2.6-1.7l-1.7,2.6v0.5l-0.2,0.2h-0.2h-0.5l-3.4,0.2l-0.5,0.2h-0.2
	l-7.9-8.7c-1.7-0.7-3.4-2.4-5.8-4.8l-3.6-2.6l-0.2-0.2l-4.1-2.4l-2.4,1.9l-0.2,0.5l-0.2-0.2h-0.2l-2.2-0.5l-2.4,1.2l-0.2,0.2
	l-0.2,0.2h-0.2l-3.4,0.5C409.3,344.4,404.7,341.7,399.9,338.9z"/>
<path class="st5" d="M414.1,457l-5.5-1.7l-5.8-0.7l-1.9,2.2l-0.5,4.1l0.2,0.2l1.7,6.3l0.2,4.8v1.4h-2.9l1.2,5.8l-4.6,1.7l-1.9,3.6
	l2.4,1.9l0.5,0.2l0,0l8.4,6.7l0.2,0.2h0.2v0.2v0.2l1.2,6l3.9,5.5c1,1.4,2.2,2.9,4.3,4.8h0.2l0.2,0.2v0.2l-0.2,0.5v5.3
	c0.7,1.4,1,4.6,1,9.1c2.2,3.1,3.1,5.3,3.1,6.7c0,1,0.7,2.9,1.9,5.5l0,0v0.2l0,0c0.5,3.4,0.2,6.3-0.5,8.7c-0.7,1.7,0.2,4.8,2.9,9.1
	l0.2,0.2l0.2,0.5l-0.2,0.5l-3.8,8.4c0.7,1.9,1,3.4,1,4.3l-1,7.9c-0.5,2.6-0.5,4.1,0.7,4.6l1.4,1c2.2,1,2.9,2.2,2.9,3.4l-0.2,4.1
	l1.2,0.5l0.2,0.2l0.7-0.7c0.7-0.7,1.4-1.7,1.7-2.9l0.5-0.7l0.2-0.5c1-0.5,1.4-1.2,2.2-2.2c0.2-1.4,0.2-2.9-0.2-4.6l-0.5-1.2l1.2-0.2
	c3.9-1,6-0.7,6.7,1l1.9,4.8v0.2v0.2l1,8l3.1,1.7h0.2h0.2l1.9,1.7l1.9-2.2l2.2-1.7h0.7c1.7,0.5,2.7,1.7,3.1,3.4l1,6.3l0.2,1l6.5,14
	l2.6,2.6l0.2,0.2v0.2l1.2,5.8l0,0l0.5,5.5l0.2,0.5c1.7-2.4,3.1-3.6,4.1-3.1c1,0.2,1.2,0.7,1.2,1.7v1.4v4.3v1.2
	c1.2,0.3,2.2,0,2.4-0.7l2.4-3.4l2.6-2.6c1.7-1.2,3.4-2.2,5.3-2.2h0.2l5,1.2l1.4-0.7l2.7-3.4l-0.5-5.3c-1.7-2.9-2.4-5.3-1.9-7
	l0.7-4.3v-0.5l0.2-0.5l0,0l4.6-2.7h0.2l0,0l3.4-2.2l3.8-5.5l0.5-4.1l-4.3-10.1l9.6,4.3v-4.1l0,0v-0.2l3.6-3.1l7-1.9h0.5l4.1,8.9v0.5
	l-0.5,3.4l0.5,3.1c0.5,1.4,1.4,2.2,2.2,2.2c1,0,1.9-0.7,2.9-1.9l0.2-0.5l0,0h0.2l5.8-1.9l0,0h0.2c3.1,0,4.6,0.7,5.3,2.2l0.5,6.5v0.2
	l1.2,0.2l2.4,0.7l3.6-0.2l6-1.7l3.6-3.1l0.2-2.6l-1.7-1.9l-6.3-2.2l0,0l-0.5-0.2l0,0v-0.2l-7.2-7.2l0.7-0.5l3.6-3.1l0.2-0.2l0,0
	l3.6-1.4l0,0h0.7l4.8,1h0.2l0.2,0.2v-1.9l-2.2-3.6l-3.4-1.7l-4.6-6.7l0,0l-0.2-0.2v-0.2l-2.2-7.9v-6l3.8-3.6h5.8l13.5,1.2l6.3-8.9
	v-0.5h0.5l5.1-2.6l2.7-5.3l0.2-0.2l6-5.1l2.9-5.3v-0.2h0.2v-0.2l0,0l2.4-2.4l2.9-4.8l1-7.5v-0.7l0.2-0.2l3.8-2.6l1-1l-5.8-1
	l-9.6,0.5l-0.2-0.2l-3.6-2.9h-0.5v-0.2l0,0l-1.9-2.9l-0.5,0.2l-0.2,0.5c-0.5,0.7-1.7,1-3.1,1l-1.4,0.7c-0.5,0.2-0.7,0.5-1.4,0.2
	c-0.5,0-0.7-0.7-1.2-1.9c-0.2-1.2-0.7-2.4-2.2-3.6l-0.2-0.2v-0.2h-0.2l-1.2-3.1h-1l-3.6,2.4l-0.2,0.2h-0.2l-8.4,1.7h-0.5l-0.5-0.2
	l-5.5-3.8l0,0l-0.2-0.2v-0.2H552l-1.4-2.9l-4.1,4.3c-2.9,3.4-5,4.3-6.5,3.4l-5.5-2.9l-3.8-0.5l-0.5,0.2l-3.6-2.6l-0.2-0.2l-0.7-0.2
	l1.7-6.5v-2.2l-2.2-1h-0.2l-5.1-5.5l0.2-4.1l-12.5-1.2l-4.8-2.7c-1.2-0.7-2.2-2.2-2.9-4.6L499,456l-1-3.6l-1.7,0.2l-3.9,3.1
	l-4.6,5.5l1,4.1l1.4,5.3v0.2h0.2l-0.2,0.2v0.2c-0.5,1.4-1.9,2.2-4.1,2.2h-4.8l-2.9-1.4l-3.6,1.4l-0.7,0.2l-0.5-0.2l-0.5,3.4
	l-0.2,0.5v0.7h-0.7l-6-1.9c0,1.9,0.2,3.4,1.2,5.1c0.7,1.7,1,2.9,0.2,4.3l-0.7,1.9c-0.7,0.7-2.9,1-6,0.7h-4.1l-0.2,6.7l-5.3-1.9h-0.2
	l-0.2-0.2l-2.6-5l-5.8-1.9l-1.4-3.1l-2.2,1.7h-0.2l-3.6,0.7h-1l-1.9-4.3l-1.9-2.6l-0.2-0.2c-1.9-2.4-2.9-4.6-3.4-5.8
	c0-0.2-0.5-0.7-1.7-1l-1-0.2c-1.7-0.7-2.9-2.2-3.6-4.3l-1-4.1v-3.4l-1.7-3.1l-2.9,1h-0.2h-0.2H414.1z"/>
<path class="st2" d="M89.8,378.3v0.2c-1,2.2-2.6,3.6-4.6,5.3c-1.4,0.7-1.9,1.9-1.9,3.4v0.7c0,1.2-0.7,3.1-2.6,6l-0.2,1.2
	c-0.5,0.7-1.4,1.2-3.1,1.2l-13.7-1.7v0.2l-1,3.1v0.2l-0.2,0.2l0,0c-3.6,5-6,8.7-6.3,11.1c-0.2,1.2,1.2,5.5,4.3,13l2.2,5.1
	c1,2.4,0.2,5.3-1.9,8.4l-4.3,4.3h-7.2l-1.4-7.9l-1.9,9.9l3.1,4.8c0.2,0.7,0.2,1.2,0,1.4l-0.5,0.5c-1,0.7-2.4,3.1-3.9,7.2
	c-1.4,3.6-0.7,7.2,2.2,11.1h5.8c1.9,0.5,4.8,3.6,8.9,9.1l0.2,0.5l0,0c0,1.7,0.7,2.9,1.9,3.8l12.8,11.8v0.2l5.8,7.2h3.4l3.6-6.5
	l0.5-0.5l0.2-0.2l8.9,2.2v0.2v0.5l1.2,6l10.6,12.3l3.6,1.4l0.2,0.2l1.7,1l0.2,0.2l7.9,11.8l6.5-1h0.5h0.2l0.5,0.5l0.2,0.5l5.5,11.5
	l6.7,4.1l5.5,1.4l2.7,7.5h4.1l0.2,0.2l0,0l8.7,4.8v0.2l0,0l0.2,0.2l6.3,7.7l9.1-1.7h0.5l3.4,1.4h0.2l5.8,5.1l10.3,0.7l6.3-1l0,0
	c8.4-1.4,13.7-0.7,15.6,1.4c1.2,1.9,0.5,3.9-2.4,6.3l-2.4,2.4c-0.7,1.2,0.2,3.1,3.4,6l0.2,0.5h-0.2l1.9,1.4l0.7-0.7
	c6-11.3,10.8-17.6,14.2-18.8c3.6-1.2,11.1,1.9,22.9,9.1l14.4,2.7l-0.2,0.5v0.5l-0.7,6.7l7.2,1l-0.2,9.1c2.2,4.1,3.8,6.5,4.8,7.2
	c1.4,1,8.7,1,21.4,0l7.5-3.9l7.2-10.1l8.4-0.2l4.1-1.2l15.9-9.1h0.2l0.2-0.2l0,0c9.1-1,14.4-1.2,15.9,0l10.3,8.7l3.1,1.2l0.5,0.5
	l4.1,1.7l0.2,0.2v-0.7v-0.3v-0.2v-0.2l1.7-7.2c-0.7-2.2-0.7-3.8,0-5.3c0.5-1.2,1.7-1.9,3.6-2.4c3.6-0.7,7,2.4,10.3,9.2l0.5,0.2h0.2
	l6-2.7c1.2-0.2,1.7-1.4,1.7-2.6l-1.2-4.3v-0.2c-0.5-1.9,0-3.6,1.9-4.3l2.2-1.7l5.3-5.8l3.6-8c-3.1-5-4.1-8.7-3.1-11.1l0.7-6.7
	c-1.4-2.9-2.2-4.8-2.2-6.5c0-0.7-1-2.9-2.9-5.8h-0.2v-0.7l-0.7-8.7c-0.2-1.5-0.5-3.4,0-5.8c-2.2-1.7-3.6-3.4-4.6-5.1l-3.6-4.8
	L405,502v-0.5v-0.2l-1.2-6l-3.6-2.9v0.2l-7-5.5v0.5l1,7.5v0.2v0.7l-3.6,1.7l-0.5,4.6v0.7l-8.4,3.4l-2.9-6.7l-1.7-0.5l-2.6,2.6
	l-1.7,4.8l-6,1.7l-3.4-2.4l-4.8-1.4l-1.4-6.7l-1.9-4.1l-2.9-1.2l-0.2-0.5l-2.2-2.6l0,0l-2.2-3.9l-3.4-4.3h-2.9l-4.8,1.7l-0.2,0.2
	l-12.3-0.7l-9.4-1.9c-0.7-0.5-2.4-1.2-5.1-2.9l-7.2-2.4c-5.5-1.4-8.7-2.7-9.4-4.1l-1.2-0.7l-1.7-0.5l-4.3-2.4l-0.5-0.2
	c-0.7-1-1.4-1.7-1.9-2.7l-1-2.2l-1.9-2.9l-3.1-1.4l-1.2,0.7l-1.2,1l-0.7,0.5c-1.2,1-2.4,1.5-3.4,1.7c-1.9,0.5-3.8-0.5-6-2.9
	l-4.6-4.8c-1.7-2.2-2.9-3.8-3.4-5.1l-1.2-1.9c-1.7-1.7-2.9-3.4-3.6-4.8c-0.7-2.2-1-4.1-0.2-6v-0.2l0,0l3.1-5.3l1.7-5.5l0.7-3.6
	l-1.2-5.5l-3.6-3.1l0.7-4.6c0-3.4,1.2-5.1,3.6-5.5c0.7-0.2,1.2-0.7,1-1.7v-0.2l0.2-4.8v-0.2l0,0v-5.5h-0.5l-0.2-0.2l0,0l0,0l-1-0.5
	v-0.2h-0.2l-4.3-2.9l0,0h-0.2l-3.4-2.9l-11.3-2.2l0,0l-3.6-2.6h-6.7c-1,0-2.2,0.7-3.8,1.7h-0.2l-5.3,1.9H204c-1.9,0.5-3.6,1-4.6,1.9
	c-1.4,1.2-4.1,2.2-7.7,3.4l-6.3,1.4v0.3H185l-8.9-1l-0.7-0.2l0.2,0.2l-0.2-0.2l-3.1-0.2l-5.3,1.7l-10.6,1h-0.2l-0.2-0.2l-5.3-1.9
	h-4.3c-1.9-0.5-4.1-1.9-6.5-4.8l-0.2-0.5c-0.5-2.2-1.2-3.1-1.4-3.6l-1.2-0.7l-2.2-1.2l-1.9,1.9l-0.2,0.5l-7.7,3.1h-0.2h-0.5l-9.4,1
	c-1.4,0-4.1-0.7-7.7-1.7l-8.2-1.4h-0.2l0,0l-4.8-2.6H89.8z"/>
<path class="st1" d="M389.1,677.9l-1,3.1c1.4,0,3.4-1,5.3-2.4l0.2-0.2h0.5l9.6-1.2l6.3-3.1l2.4,3.4l0.5,0.2l-2.9,4.6l3.4,3.4v0.2
	v0.7l-2.4,10.1l6.3,4.6l11.3,0.5l-1.7,2.2c-7.2,8.9-10.6,14.2-10.3,15.9l4.3,1c5.8,0.5,9.1,2.2,10.3,4.3c1.4,2.9,2.9,5.8,4.1,9.1
	l6.5,3.6l4.1,0.7l8.4-7.2l4.3,6.5v0.2l0,0l0.2,0.2l1.4,6l3.6,0.7l0,0l5.5,1.9l1.4-0.5v-0.2l-1-6.3l-0.2-0.2l-3.1-14.2v-0.5l1.9-9.9
	l0.5,0.2h0.7l6.5,0.5l8.2-6l0.7,0.5c4.3,3.4,7.2,6,8.7,7.9c1.4-0.5,4.1-3.1,7.7-7.2l0.2-0.2l0.5-0.5l12,3.1l5.3-4.3l0.2-0.2l0.2-0.2
	h0.2l0.2,0.2l5.1,1l16.4-14.4l5.1,1.4l0,0l0.2,0.2l0.2,0.2l0.2,0.2l1.2,2.2l1.2-1.4h0.2v-0.2h0.2l4.8-2.6l3.6-3.4l-1-7.5l-0.7-1
	l-4.6,1.9l0,0c-1.4,0.5-2.6,1-4.3,1h-5.3c-1.7-0.2-2.6-0.7-3.4-1.7l-0.5-7.7c-1.7-1-2.4-1.4-3.1-1.4l-1.2,0.5l-1.7,1l-3.4,0.7h-1
	l-0.2-0.5l-1.9-3.4l-0.2-3.1l0,0l1.9-9.1l0,0h0.2v-0.2l2.2-4.6l-6.7-6l-0.2-0.2l-0.2-0.2v-7l0.2-0.2l3.9-11.1l-2.4-6l-2.2-0.5
	l-2.6,0.2l-2.6,4.1l-3.4-2.4l-3.4-1.9l-2.6-6.7l0,0l0,0l-1-4.8v-0.5l-0.2-0.2l0.7-0.5l3.1-4.3l0.7-0.5l0,0h0.2l2.4-0.5l2.6-0.7
	l12.5-0.5h0.2l1.7,0.7l0.5,0.2l1.9,0.7l3.4-1.4l2.9-2.1l1.4-2.4l0.3-1.2l-0.3-5.3l-2.6-0.5l-5.1,1.7c-1.4,1.7-3.1,2.9-4.8,2.9
	c-1.7,0-3.1-1.5-4.6-4.1l0,0h-0.2v-0.2l-0.2-3.4v-0.5l0.2-3.1l-2.6-6.5l-5.1,1.4l-2.2,1.9l0.7,7.2l-7.9-3.6l1.9,4.3l0.2,0.2v0.5
	l-0.7,4.8v0.5h-0.2l-4.6,6.5l0,0l-7.5,4.6l-0.7,4.3c-0.2,0.7,0.7,2.6,1.9,5.1l0.2,0.2v0.2l0.5,6.3v0.7l-0.2,0.2l-2.9,3.9l0,0
	l-0.2,0.2h-0.2l-2.2,1.4h-0.2h-0.2h-0.2h-0.2l-5.5-1.2c-1,0-2.2,0.5-3.4,1.4l-2.4,2.7l-1.9,2.4c-1.2,2.2-2.9,2.7-5.5,2.2
	c-1.7-0.2-2.2-1.9-1.7-4.1v-1.7l-0.2-1.7l-1,1.2c-0.7,1-1.4,1.2-2.4,1.2c-1-0.2-1.7-1.2-2.2-2.9v-0.2l-0.5-5.5l-1.2-5.3l-2.4-2.4
	l0,0l-0.2-0.2l-5.1-11.6l-0.2-0.2l-1.4-3.4v-0.2h-0.2v-0.2l-1-6.3l-0.7-1l-1,0.7c-1.7,1.9-2.9,3.1-3.4,3.1c-0.7,0-1.9-1-3.9-2.4
	l-3.6-1.7l-0.5-0.2l-0.2-0.2v-0.3l-0.2-0.5l-0.2-4.8l0,0l-0.7-3.6l-1.9-4.8h-1.9c0.2,1.9,0,3.6-0.5,4.8c-0.5,1.4-1.4,2.4-2.9,3.6
	c-0.5,1.7-1.2,2.9-2.2,3.8c-1.4,1.4-2.6,1.4-4.1,0.5l-0.7-0.2c-1.4-0.5-1.7-2.2-1.4-5.3v-1.2l-3.1-1.9c-1.2-0.5-1.9-1.9-2.2-4.1
	l1.2-10.8l-0.5-1.7l-3.9,4.3l-2.6,1.9l-0.7,1.7c1,2.2,1.4,3.9,1.4,5.1c0,2.4-1.2,4.3-3.4,5.1l-4.3,1.7l-1.2,0.7l-0.2,1.7v6.7
	c0.2,2.2,0.5,3.4,1.2,3.4c1.4,0.7,3.1,0.7,4.6-0.5l1.4-0.7l4.6,10.6v0.2l0,0v0.5c-1.7,19-3.4,29.8-5.5,32.7c-1,1-1.7,1.4-3.1,1.7
	c-1.7,0-2.9-0.2-4.6-1.2c-6.3,12.5-10.3,19-12.3,20h0.2c-1,0.2-1.4,3.4-1.2,8.9l1.4,1.2l0.5,0.5l0.5,0.5L389.1,677.9z"/>
<path class="st6" d="M601.1,567.9l-1.7-0.7l-1.9,1.2l-1.2,2.2c-1,2.2-1.9,3.4-3.6,3.4c-1,0-2.2-0.7-2.9-1.4l-0.2-0.2l-0.2-0.2l0,0
	l-0.7-2.4v-0.2l-0.2-3.1l-1.4-0.2l-0.2,0.2l-0.7,2.4v3.4l-0.2,0.2l-0.2,0.2l-2.9,3.9l-0.5,0.5h-0.5l-5.8-0.5h-0.5v0.2l0,0v0.2
	l-1.9,2.6l0.7,1.7h0.2l-1.7,2.6h-5.3v-1l-0.5-0.5l-0.7-0.5l-1,1.7l-0.2,0.7h-3.6l-0.2-0.2l-2.2-1.7l-0.2-0.5v-0.2h-0.2v-0.5
	l-3.9-0.7l-2.9,1.2l-1.7,1.2l4.8,5.5l6.3,1.9l0.2,0.2l0,0l0.2,0.2l3.1,2.9l-1.2,4.8l0,0v0.7h-0.2l-4.1,3.4v0.2H559l-6.7,1.9H552
	l-3.9,0.5l0,0h-0.2l0,0h-0.2l-2.7-1l-1.4-0.2l-1.4,2.4h-0.2v0.2l-3.1,2.2h-0.2l0,0l-4.3,1.9h-0.2l-5.1-1.7l-11.1,0.5l-2.4,0.7
	l-0.2,0.2H513l-2.6,3.6l0.5,4.1l2.4,5.5l2.6,1.4h0.2v0.2l1,0.7l1.7-2.4l0.2-0.2l0.2-0.2h0.2l3.6-0.5h0.5v0.2l3.6,1l3.6,8.2h-0.2v0.2
	l-1.4,4.6l0,0l-1.2,2.9v0.2l-1.7,4.1v5l2.9,2.9h0.2l3.9,3.4l0.5,0.2l0.2,0.2l-2.9,6.7l-0.7,3.1l1-0.5h0.2l2.4-1l4.3-2.4h0.2l4.8,0.7
	h0.2l0,0l7.2,2.9h7.9l2.2-2.9l0.2-0.2l0.2-0.2l4.1-1.9l3.9-3.4l0.5-0.2l0,0l2.9-1l3.1-2.4l3.6-4.8l5.1,1.9l0.7,0.2v0.2l0.2,0.2
	c0.7,1.9,1.4,2.9,2.2,3.1l3.1-0.5h0.7l1.7,0.5h0.2v0.2l4.1,1.4h1.2l0.2-1l0.5-1.4v-0.2l0.2-0.2l0.2-0.2v-0.2l1.4-1l0.2-0.2l2.6-2.2
	h0.2l0.2-0.2h0.5l2.4,0.2c0-1.4,0.7-2.9,2.2-4.3c1.7-1.2,2.9-1.9,3.6-1.7l1.4-1h0.2V642l1.2-1.2v-0.2h0.2l0.2-0.2h0.2l3.9-1h2.2
	l1-0.7l0.7-1.4l0,0l1.2-2.4l-0.5-0.3c-1.4-1.7-2.4-3.6-2.9-6.3l-0.2-0.2l0,0h0.2v-0.2l1-5.3c0-1.7,0.5-2.9,1.7-4.1l-0.5-4.3
	c-0.2-0.5-0.7-1-1.9-1.2l-7.7,3.1l0.5-7.9c0.2-1.2,2.6-3.4,7.2-6l-2.2-8.4c-0.5-2.9,0.2-5.1,2.2-7l-0.5-1.4h-2.4l-0.7,0.2l-1.2,3.4
	c-1,1.2-1.9,1.9-2.9,1.9h-0.5l-2.4-1.7h-0.2h-0.2v-0.2v-0.5l-0.7-1.7l-0.2-2.4v-0.2l-0.2,0.5l-0.2,0.7h-4.3l-0.5-1l-0.7-2.6V578
	l-2.6-4.6v-3.9L601.1,567.9z"/>
<path class="st5" d="M649.9,630.3l0.2,0.2l0.5,0.5l-3.1,4.8c-1.2,1.4-2.9,2.4-4.8,2.4h-0.5l-2.4-1.4l-2.4,0.2l-4.8,3.6
	c-1.2,0.5-2.6-0.7-4.8-3.6l-1.4,3.1h-0.2l0,0l-0.2,0.2l0,0l-1.7,1.7H621l-3.1,1l-3.9,2.9h-1.2l-1.4,1c-1.2,1.2-1.7,2.2-1,3.1
	l1.7,2.4l-6.7-0.7l-3.6,2.9l-0.5,1.2v0.2l-0.7,1.9l-0.2,0.2l-0.2,0.2h-3.4l-4.3-1.7l-1.4-0.2l-3.4,0.5c-1.4,0-3.1-1.7-4.6-4.3
	l-2.9-1.2l-2.4,3.6l0,0h-0.2l-3.4,2.9h-0.2v0.2h-0.5l-2.6,0.7l-3.8,3.4l0,0l-4.1,1.9l-2.9,3.8h-9.6l0,0l-7.5-2.9l-4.1-0.5l-3.6,1.9
	h-0.2l0,0l-2.4,1c-1.2,0.5-2.2,1.2-2.9,1.4l-0.5,1.2v2.9l1.2,1.9l5.8-1.9c1.2,0,2.9,0.7,5.1,1.9l0.5,0.2l0.3,0.2l0.2,8.2l1.2,0.2
	h5.1l3.1-0.7l0.5-0.5c1.9-1,3.6-1.7,5.8-1.9l1-0.2l0.5,0.7l1.4,2.9v0.2l0.7,7.9v0.7l-4.3,4.6h-0.2v0.2l-5,2.4l-1.7,1.9l0.7,1.4
	l10.4,1l0.2,0.2l0,0l0.2,0.2l4.1,2.4l9.1-0.2v1.2l0.5,4.6v0.5h0.2l-4.1,4.1c-0.5,5.3,0.5,8.4,2.6,9.1l7.7,4.1l6,4.1l5.1-2.4l0.5-0.2
	l0.5-0.2l0.2,0.2l7.7,5.8l1.2,0.5l1.9-2.4l0.5-0.5l0.2-0.2h0.2h0.2l4.6,0.7l1-7.9l5.8,10.3l4.8,0.2l0.7,0.2h0.5v0.5v3.1l1.9-0.5
	l7.9-10.6l3.4,5.1v-1.7l0,0v-0.2v-0.2l2.4-4.8l2.2-3.6h6l1-6.7h0.7l0.5,0.2l4.6,0.7l0.5-2.4l-1.7-3.9v-0.5l1-2.6v-0.5l0.2-0.2h0.2
	v-0.2l12.5-6.7l-0.5-6.5l0,0v-0.2l2.4-4.8l0.5-1l0,0l3.9-8.9l0.2-0.2l0,0l3.1-3.1l1.9-3.6v-0.5l0,0l1.7-2.9l-1.4-3.6v-0.2h-0.2v-3.9
	h-1.9l-3.6,1.7c-1.7,1.2-4.1,0.7-7.2-1.2c-1.2-1-1.2-3.4-0.5-7l-1.9-0.2l-1,1.2c-2.2,2.4-3.9,3.9-4.3,3.9c-0.5,0-0.7,0-1.2-0.2
	c-0.2-0.7-0.7-1.9-0.7-3.8c0-2.2,0-3.6,0.7-4.1c0.5-0.7,1-1,1.4-0.5l4.6-8.4l1.2-3.1l0.7-3.6L662,636c-0.7-0.7-1-2.4-0.5-4.8v-1.4
	c0-0.7-0.5-1.7-1.4-2.4h-0.5l-0.2,0.7c-0.7,1.9-2.4,2.9-5.1,2.2C653,629.8,651.6,629.8,649.9,630.3L649.9,630.3z"/>
<path class="st5" d="M635.5,518.6l-1.7-3.9l-2.6-3.9l-2.9-0.7H628v-0.2h-0.2l-2.4-1.2l0,0h-0.5l-1,0.2l-3.1,0.5h-0.2l-0.5-0.2
	l-3.1-1.2v-0.2h-0.2v-0.2l0,0l-2.4-2.4l-2.6-2.7l-2.4-1.4l-2.6,2.4l-3.4,2.4l-1,7.2v0.2l0,0l-3.1,5.3v0.5h-0.2l-2.4,2.4l-2.9,5.5
	l0,0l-0.2,0.5c-2.2,1.7-4.1,3.4-6,4.8l-2.4,4.3c-0.5,1.2-2.4,2.6-6,4.1l-2.4,4.1l0,0l-4.1,5.5h-0.2v0.2h-0.5l-19.3-1.2l-2.2,2.2v4.1
	l1.9,7.9l4.1,5.8l3.4,1.9v0.2h0.2l0,0c1.9,2.4,2.9,4.1,2.9,5.3v3.1l-1.2,1.2l0.7,0.5h1l1.4-2.9h0.5l3.8,1.2l0.2,1.2h1.9l0,0
	l-0.5-1.4l-0.2-0.5l2.6-4.1c0.5-1.2,1.7-1.7,3.4-1.2l4.3,0.2l2.4-3.1v-2.9l1-3.1v-0.2l0.2-0.2l0.2-0.2l1.7-1v-0.2h0.2l0.2,0.2
	l3.6,0.5v0.5l0.7,2.9v1.4l0.5,2.2l1,0.2l1.2-1.7v-0.2l1.9-2.6l0.2-0.5l2.6-1.2h0.2l0.2-0.2l3.1,1h0.2l0.5,0.2l1.7,3.4v3.4l2.4,4.6
	l0,0v0.5v3.4l0.7,1.4h0.7l1-1.2l0.2-0.5l2.9,1.7h0.2h0.2v0.5v0.2l1,4.1l1.2,0.7l0.2-0.5l1.2-3.1v-0.2l0.2-0.5h0.2h0.2l1.7-1h0.2
	v-0.2h2.2l-0.5-1.2v-0.5l-1.2-11.3l-4.6-7.5l-8.7-10.1l-0.2-0.2l-0.5-6.5l-2.9-5v-0.3l-0.2-0.2l0,0l0.2-0.5l1.4-6.3h0.5h0.5l15.2-1
	l8.2-4.3l0,0l0.2-0.2c2.9-1,4.8-2.2,5.3-3.4C635,522.7,635.5,521,635.5,518.6z"/>
<path class="st5" d="M695.2,307.6l1-1.2l-1.7-3.8l-1.7-1.9l-1.9,3.1v0.2l0,0l0,0l-3.1,3.6l0,0l-0.2,0.2H687l-5.8,1.7h-0.5l-5.5-1
	l-3.1,1l-0.7,2.6l0,0l-0.2,0.5l-2.7,1.7l-0.5,0.2h-0.5l-4.8-0.5l-0.2,0.5v4.8l-0.2,0.2l-2.6,3.4l0,0v0.2h-0.2l-4.6,4.6h-0.2
	l-0.2,0.2l-4.8,1l-3.1,3.4l0.7,4.1v1l-0.7,0.2l-3.6,3.4l-1.9,2.4l1.4,3.1v0.2v0.2v4.6l0,0v0.2l-2.6,3.9v0.2L636,360l0.5,4.8l3.1,2.9
	v0.2l0,0c1.4,2.4,2.2,4.3,2.2,6v5.3h-0.2l-0.2,0.2l-4.8,3.6l-0.5,7.2l0.5,7.2c0,2.4,1,7,3.4,13.7v0.2v0.5l-5.3,24.5l0.5,4.8l3.6,1.7
	l5.8-5.8l0,0h0.2l18.5-7.2l4.8-4.3l0.5-0.5l0.2,0.2h0.5l10.6,1c1.5,0,4.6-1.2,9.2-3.1v-5.1l0.2-0.2h0.2l2.9-2.6l-0.7-3.1V412v-0.2
	v-0.5l0.2-0.2c1-1,1-1.9,0.2-2.6c-0.7-1.4-0.5-3.4,0.7-5.5l1.2-1.7l0,0l-0.2-3.4l-3.6-4.3c-1.7-1.2-1.9-2.9-1-4.6
	c0.5-1.4,1.2-2.9,2.4-4.1l1-4.1l0,0l0,0l2.6-5.8l0.7-2.6l3.8-7.2l-2.6-4.6l-7.5-4.6h-0.5v-0.5l0,0l-1.4-3.9v-0.2v-0.5l0.7-6.5l0,0
	v-0.2l1.7-4.8c-0.2-1.7,0-2.9,0.7-3.9c0.5-0.5,1.2-1,1.9-1l4.6-0.7l1.2-2.6l1.2-7.9l-1-2.9l-4.1-1h-0.2l0,0l-4.8-2.4l-0.2-0.2v-0.5
	l-0.2-0.2l-0.2-5.8v-0.5V309L695.2,307.6z"/>
<path class="st4" d="M781.3,684.6c2.2-0.2,3.4-1.2,3.8-2.4V682l0.2-0.7h1l4.3-0.2v-3.1c-1.2,0-2.4-0.5-3.6-1.5l-7.2-6.5v-0.2
	l-3.1-9.1l-4.3-4.3c-5.3-0.2-9.4-0.2-12.3,0l-1,0.2l0.2,2.9v0.5v0.7h-0.7l-3.8,1.7l-0.7-0.5c-3.1-3.1-5.1-4.3-6.2-3.6
	c-8.4,4.1-13.2,6-14.7,5.1c-1,0.2-2.2,1.2-3.9,2.9l-0.7,1l-1-1c-2.4-2.2-3.6-4.1-3.6-5.5c0-1,1.7-2.9,4.6-6c3.4-3.9,5.1-6,5.1-6.5
	l-0.7-1.2c-1-0.5-2.9,0.5-5.3,2.4c-2.4,1.7-3.9,2.4-4.8,2.2c-0.5,0-1-0.7-1.2-1.9l-0.2-0.5l-2.2-3.9l-4.6,2.9l-0.5,0.5l-0.2-0.5
	h-0.2c-3.4-1.9-6.5-3.1-9.6-4.3c-2.2-0.7-4.3,0.2-6.5,2.9l2.2,3.6c1.4,3.6,2.2,6,1.4,7.7c-0.2,0.7-1,1.4-1.9,1.4
	c-1.5,0.5-3.6,0-6.3-2.2c-2.2-1.4-3.8-2.6-5.3-3.4l-2.9-1.2v0.2l0,0l0.2,0.5v5.3l-3.9,4.3v4.1l1.7,4.3l0.2,0.2l-2.6,4.1l-1.7,3.9
	v0.2l-3.6,3.6l-6,13.7l0.2,7.5l-0.2,0.2l-13,7.5l-0.7,1.5l1.7,3.9v0.2v0.2l-1.2,5l-5.3-0.7l-1.2,6.5h-6.7l-1.4,2.4l0,0l-1.9,4.1
	l-1.2,15.2l1.4,3.1l0.2,0.5v3.1l2.9,3.6l0.2,0.5v2.9l7.7-0.5l0.5-0.7v-0.3h0.2v-0.2l2.2-2.9l-4.8-4.3l-0.5-0.5l-2.6-2.2l-0.2-0.2
	l-0.2-0.2v-4.8h4.1l0.5-1.7l-1.7-4.8h9.4L674,733l2.2-3.6l0.5-1.2l3.4,1.4h0.2l0.2,0.7l1.4,1.7l1.7-0.2l-0.5-3.6h5.5l5.3,1l2.2-3.6
	l0.2-0.2v-0.2l0.5-0.2l5.8-1.7l1-8.4l6,5.3l2.4,0.5l1.2-1.4l-0.7-18.3v-0.5v-1l4.1,0.7h0.2l0.5,0.2l0.2,0.2l6.5,11.8l8.2-1l1.4-0.5
	l1.2-2.9l-2.4-1.9l-0.7-1l5.5-1.9l0.5-0.2l0.2-0.2l2.2,2.4l1.9-1v-3.6l1.2-0.2h4.1c2.9,0.2,5.1,1.7,6.7,3.9l0.5,1l1.7-5.8
	c1-1.4,2.9-1.7,5.8-0.5l0.5,0.2v0.2l0.2,0.2c0.2,0.2,0.7,0.5,1,0.5c1.2-0.5,5.5-3.4,12.5-8.9C776.2,687.5,778.2,685.6,781.3,684.6z"
	/>
<path class="st2" d="M782.3,543.6l-0.2-0.2l-5.3-4.6l-2.9,1.4c-1.9,4.3-4.6,7-7.9,8.2c-1,0.5-2.2,0.2-2.9-0.5
	c-1-1.2-0.5-3.8,1.2-7.9l-7.9,5l-0.2,0.5h-0.2h-7l-6.3,3.1v0.5l-6.7,0.2l-3.6,1.9l-1.7,3.4l-0.5,0.5h-7.9c-1.4,0-4.6,2.4-9.6,7.5
	c2.4,1,3.6,1.9,4.1,2.6l0.2,1.4v-0.2l3.6,13.5l0,0l0.2,0.7v1h-0.2l-0.5,0.2h-0.2l-9.6,13.2l0.5,3.4c1.4-1.2,2.6-1.5,3.6-1
	c1.2,0.5,1.7,2.4,1.2,5.3c-0.5,4.6,0.2,9.6,2.4,14.4l3.4,3.6c1.2,1.2,1.7,2.4,1.4,3.6l-1.7,2.4l2.2,2.9c1.2,2.4,0.2,6.5-2.6,12.3
	l3.1,5.3l0.5,1.2l1.9-1.2c3.1-2.9,5.8-3.6,7.9-2.9c1.4,0.5,2.2,1.7,2.4,2.9c0.2,1.7-1.7,4.6-6,8.9l-3.4,4.3l1.7,2.6
	c2.4-2.2,4.3-2.9,5.5-2.4c1.4,0,5.5-1.4,12.5-5.1c2.2-1.2,5.1,0,8.7,3.6l1.4-0.7l-0.2-2.9l-0.7-0.5c-0.5-0.7,0-1.4,0.7-2.2l-1.2-4.6
	c-0.2-0.7-0.2-1.7,0-2.4c0.7-0.7,1.7-1.2,2.6-1.7l2.2-1.9l-1.2-2.9v-0.2h0.2v-0.2c1-1.4,1-2.6,0.7-3.4c-1-1.7-0.2-2.9,1.7-4.6
	l2.6-2.4l-0.5-0.5l-0.7-0.7l3.1-1.4v-3.9c0-1.4,1.2-3.4,4.6-5.8l1.4-1.2l0,0l-3.6-4.1c-1.2-1.7-0.7-3.9,1.4-6v-0.5l7.5-6.2l0.2-1.7
	c-1.5-0.5-1.9-3.1-1.2-7.2c1-6.5,3.8-9.6,8.9-10.3l0,0h0.5l3.1,1.7h3.4l3.1-3.8l0,0l0,0l0.2-0.2l3.8-2.4l-0.5-3.4v-0.7l0.5-0.5
	l1-0.5l1.2-1.5l0.2-0.2l-2.4-4.1c-2.4-3.1-4.6-6-6-9.4c-1.2-2.2-1-4.6,0.7-7.2l-4.3-2.6L782.3,543.6z"/>
<path class="st2" d="M802,575.9l-0.5,0.2l-4.1,2.9l-3.6,4.1h-0.2v0.5h-5.3l0,0l-2.9-1.7c-3.6,1-5.5,3.4-6.3,7.9l-0.2,4.1l2.9-2.6
	l-1.9,7.9v0.2v0.2l-7.9,7c-1.2,1.4-1.7,2.6-1.2,3.4l1.4,1.7c1.7,1.4,2.6,2.7,2.4,3.6c0,0.7-0.2,1.5-0.7,1.9l-5.1,4.3
	c0.2,1.2,0.2,3.1,0,5.3v0.7l-0.2,0.2l-1.9,0.7c0,1.2-0.5,1.9-1.7,3.1l-2.7,2.6v0.2c0.5,1.2,0.5,2.7-0.5,4.8c1.2,2.4,1.2,4.1,0,4.8
	l-2.4,2.4l-0.5,0.2l-1.2,0.5v0.5l1.7,5.8h0.5c4.1-0.5,8.4-0.5,13.2,0h0.5v0.2l5.3,5.3v0.2h0.2l3.1,8.9l6.5,6l2.7,1l0.2-7.5l6,6l1-1
	l4.3-8.9l0.7-5.1l0.7,0.3h0.5l4.6,0.2l-0.2-3.6V655v-0.5h0.7l6,0.2c3.1-3.1,4.6-5.8,4.6-7.9l-1-8.7l5.3,1.7l1.4-2.4l-2.4-2.4l-0.7-1
	l4.8-4.8l0.2,0.5h0.5l2.9,1.7v-0.7l-1.9-4.3l0.7-0.7l1.2-0.7l-0.5-1.7l-2.4-4.6l0.5-0.2l0.5-0.5l6.5-3.6l0.2-2.7
	c-5.5-2.9-8.4-5.3-7.9-6.5c0.2-1,0.7-1.2,1.9-1.2l7.2,1.2l0.2-4.3v-0.5l3.6-3.6l1-2.6c-1.4-0.5-2.4-1.4-3.4-2.4l-0.2-0.5v-0.5
	l0.2-1.2l-0.2-0.5l-0.5-0.2l-0.2,0.2c-0.5,1-1.7,1.7-3.4,1.7c-2.7,0-4.8-1.2-6.5-2.9v-0.2H828l-1.9-3.4l-0.5,0.5
	c-0.2,1.4-1.2,2.9-2.9,4.1c-3.1,1.4-6,1.9-8.9,0.7c-1.9-0.7-3.1-2.2-3.9-4.3l-0.7-4.8c-0.7-4.6-1.7-7.2-3.1-7.9
	c-1.4-1-2.9-1.2-4.1-1l0.2,4.1L802,575.9z"/>
<path class="st2" d="M840,507.1c-2.7,1.2-4.8,2.2-6.5,2.4c-1.4,0-3.9-0.5-7.2-1.7l-5.5-0.7c-1.7,0.7-3.6,3.1-6.3,7.2l3.6,7.7l-6,3.4
	h-0.2l-4.8-1.4c1.9,3.6,2.4,5.8,1.7,6.7l-0.5,1.9c-1.2,2.9-2.2,4.6-3.1,5.5l-8.4,7.5l2.2,1.2l-1.4,1.2c-1.9,1.7-2.4,3.6-1.4,5.1
	l5.8,8.9h0.2v0.2l2.7,4.8v0.2l0.2,0.2l-0.2,0.5v0.5v0.2l-0.5,0.5c1.2,0,2.2,0.5,3.4,1.2c1.9,1.2,3.4,4.6,4.1,9.6l1,4.8
	c0.5,1.2,1,1.9,2.2,2.4c1.9,1,4.3,0.7,6.5-0.7c1.2-0.7,1.9-1.4,1.7-2.2l-0.2-0.2v-0.5l4.1-2.9l0.5,0.5l3.1,5.3
	c1.2,1,2.4,1.5,4.3,1.5l1.2-0.2l0,0l-1-2.9l4.6,1.9h1.2h0.2l0.2,0.5l4.3,3.4l1.2-1.9l-0.2-8.2l0.2-0.2l0,0l2.9-3.6
	c0.2-0.5,0-1.4-1.2-2.6l-0.7-0.7l0.5-0.5l0.2-0.5l0.7-0.2l6-9.9l0.5,0.2l1.2,0.2l0.5,0.2v0.5l-0.5,3.8h0.5l6.7-6l-0.5-3.1h-1.2
	l-2.4,0.2l4.1-11.1l-3.6-0.5l0,0H860v-0.5l-1.2-1.4c-0.7-1.4-0.7-2.6,0.2-3.8l5.8-0.3h3.6c0-1.2-0.7-3.4-2.9-7l-5.1-1.7l5.3-5.1
	v-1.2l-2.6,0.5h-1v-0.3l-0.2-0.2l-0.2-0.5c-0.7-2.4-2.2-4.3-4.3-5l-9.6,0.2l-4.1,4.8v0.2l-1.2-0.2l-15.2-4.8l14.7-3.8
	c1,0,3.4-2.4,7.5-7.2l-5-3.6L840,507.1z"/>
<path class="st2" d="M782.7,465.2h-0.2V465c-2.7-9.1-5.1-14.2-6.7-14.9l-8.4-2.9c-4.8-1.4-8.2-2.4-9.6-3.4
	c-2.4-1.4-5.5-4.8-9.1-10.4h-1.4l0.2,0.3c0.5,1.9,2.4,5.3,6.5,10.1l0.2,0.2l0.2,0.5l-3.9,7c-1.4,2.6-2.9,3.8-4.3,3.4
	c-1-0.5-2.9-2.7-6-6.7l-4.1-1.2c0,1.2,0.7,3.6,2.4,7.5v0.2v0.2v0.2v0.2l-0.7,2.6l-4.3,1.9l0,0l-1.4,0.5c-0.7,0.7-0.7,1.9-0.5,3.4
	c0.5,3.6,0.2,5.8-0.5,6.7c-0.5,0.5-0.7,0.5-1.2,0.5h-0.2l0,0l-4.8-1c0.2,1,1,1.9,2.2,2.6c2.4,2.2,4.3,5.3,6.3,8.9l0.2,0.7l0,0
	l2.2-0.5c2.6-0.5,5,0,7.5,1.7l2.6,3.1l0.2,0.2v0.2h-0.2l-0.2,6.3c0.7,1,1.2,2.2,0.7,3.1c-0.5,1.2-1.4,1.9-3.1,2.2
	c-1.9,0-2.9,1.2-3.4,3.6l0,0l0,0v0.2l-1.9,4.1l2.9,2.9l6.3,1.2h0.5l0,0l3.1,3.4l-3.9,5.8l8.9,19.3l0.2,0.5l-1.4,1.7l0.5,1.4h0.2
	l16.4-10.3l-2.6,4.8c-2.2,3.6-3.4,6.7-3.8,8.9c2.9-1.2,5.3-3.4,6.7-7.2l0.2-0.5h0.2l4.6-2.4l0.2-0.5l6.5,5.8l7.2,0.2l0.2,0.2
	l3.4,2.2l8.9-7.7c0.7-0.7,1.4-2.2,2.4-4.6l1-1.9c0.2-1-1-3.4-3.4-7.5l-2.2-3.1l10.6,3.6l3.1-1.7l-3.1-6.7l-0.2-0.2l5.3-7l-2.2-3.4
	c-2.2-2.4-3.6-3.6-4.6-3.6l-0.5,0.2l-2.6,2.6l-0.5-0.2h-0.5l-4.3-1.4l-1.2-3.9c-1.7-0.2-3.4-1.2-4.8-2.9l-2.7-1.7
	c-2.2-1-3.4-2.2-3.4-3.4c-0.5-1.4,0-3.1,1.4-5.3c2.6-3.9,4.1-7,4.1-9.4v-3.1l1.7,0.2l5.5,0.2c0.5-0.5,1.2-2.9,2.2-7.2l-1.7-0.2
	c-3.9,2.7-6.7,4.3-8.9,5.1c-2.6,0.7-6-0.7-10.8-4.1v-0.2L782.7,465.2z"/>
<path class="st4" d="M824.4,233.7l-2.9,3.8c-0.5,0.7-0.7,2.2-0.2,4.6v1.4h-5.8h-0.3l0,0l-4.1-1.2l-3.1,4.8l-0.5,0.5l-3.9,2.4
	l-3.4,3.6l0,0l-0.5,0.7l0,0l-6,7v0.2h-0.2L789,264l-3.6-2.4v-0.2l0,0l0,0l-3.4-3.6l-2.2-1.2l1.7,9.9l1.4,5.3l-3.6,3.4l-5.1,7.5v3.1
	l-0.2,0.2h-0.2l-1.2,1.9l1,1.7h1.9l7,1.9h0.2h0.3v0.2h0.2l1.4,1.4l1.9,1l0,0h0.5v0.2c0.7,1,1.2,1.9,1.2,2.9l0.7,2.2l7.5,2.2l2.2-0.5
	l2.2-2.9l5.8-11.1h0.2v-0.2l2.6-3.6l0.2-0.2l4.6-2.2l3.1-0.2c1.2-1.9,2.2-2.9,3.4-2.9c0.7,0,1.9,0.5,3.9,1.4l0.5,0.2v0.2l4.1,6.3
	v0.2h0.2v0.5l0.5,4.6l-0.2,5.1l0,0l-1.2,4.3l0,0v0.5h-0.2l-3.1,3.9l-1.4,3.1l0.2,5.3h0.5l1.7-0.7l1.9-1.7l0.5-0.5l0.2-0.5l2.4,2.2
	v0.2v3.9h-0.2l-2.2,1l-0.7,1v2.2l-0.2,0.2l0,0l-1.4,2.6h-0.2l-0.5,0.2l-1.9,0.2l-1.9,0.5l-1.4,2.6l0.2,0.5l7.9-1l1.4-1.2l2.6-7l0,0
	l17.8-18.3h0.5l3.9-1.9l0.2-0.2v0.2h3.1l3.1-0.7l3.4-1.4l2.4-2.6l3.9-10.6l0,0v-0.2l14.9-15.6v-0.2l-1-8.4c-0.7-0.2-1.7-0.7-2.2-1.4
	l-0.5-0.5v0.2l-2.4,0.2c-1.2-0.5-1.9-1-2.9-2.2l-0.7-1.4v-0.2l-0.2-0.2v-13c-1.4-0.5-2.9-1.4-4.6-3.1l-3.1-3.4l-2.9-4.1
	c-0.5-1-0.5-2.4-0.2-4.6l0.2-1.2l-1.7-2.2l-0.2,1.9l-2.2,4.1h-0.7c-1.7,0-3.6-0.2-5.1-1c-1.4-0.5-2.2-1.7-2.2-3.1v-1H852l-4.6,1.2
	l-3.4-3.4l-1.2-0.2l-1.2,1.2l1.4,2.4l0.5,0.7l-2.4,5.1H841v0.2h-0.2l-4.3,4.8l-0.2,0.2h-0.5l-6.7,0.7L824.4,233.7z"/>
<path class="st1" d="M829.7,160.1l-1-5.1l-2.4,1.4h-0.2l-5.8,2.2l-0.2-0.5l-1-0.2v2.7l-0.2,0.2l-2.9,4.3h-0.2v0.2h-0.2l-4.3,3.6
	h-0.5v0.5l-0.7-0.5c-2.9-1.2-4.8-2.6-5.3-3.8c-0.5-0.5-0.7-0.5-1.2-0.7l-3.1,0.5l-1.9,1.9l5.1,4.3l4.1,1.7l0.2,0.2h0.2l0.2,0.5v0.2
	l0.7,4.8h0.2v7.5l1,4.3l2.9,6.7l3.4,3.1l2.6-1.9l1.9-2.4v-0.2h0.2l3.4-4.1l2.9,2.6v0.2l0,0l0,0v0.2l2.9,5.5l3.6,1.4l1.9,5.8v0.2v0.2
	l-0.2,5.3v0.2h-0.2l-1.5,4.8l2.6,2.4l2.9-1.4l2.9-2.9l0.7,0.5l2.4,0.7l0,0l0,0l2.9,2.6l3.1-0.7c2.4-0.7,3.6,0,4.3,1.7v2.2l0.5,0.2
	l3.4,1l1.4-3.1v-1.2c0-1,0.2-1.9,1-2.2l1.9,0.2c2.7,1.2,3.9,2.9,3.9,4.8l-0.2,1.7v2.9l2.7,3.9l3.1,3.4c1,1.2,2.2,1.7,3.4,2.2h0.5
	c0.7,0.5,1.2,1.7,1.2,4.3v10.8c0.5,1,1.2,1.7,1.9,1.9h0.5c1.4-0.7,2.4-0.5,3.6,0.7l0.7,0.5c1.2,0.2,2.2,1.2,2.4,3.1l0.5,6l5.5-11.3
	c1.7-6,3.6-9.6,6.3-10.1c2.2-0.7,5.5,0.5,9.9,2.9l15.6,1.2l0.5-3.4l-7.2-7c-3.4-1.9-4.8-3.4-4.3-4.3l5.5,0.2
	c5.1,1.7,9.9-1.2,14.4-9.4l0,0h0.2l5.3-5.1l0.7-11.1V206h0.7h0.5l4.1-1h0.7l0.5,0.2v0.2l8.4,8.9l2.4-1l0.5-1.4l-4.6-4.3l-0.7-0.5
	l-0.5-0.7l7-4.1l-0.5-10.1l-2.9,0.5l0,0H956l-3.8-1.9c-1.4-0.2-3.4-1.2-6.3-2.9c-1.4-0.7-2.4-1.4-2.4-2.4v0.2c0,1-0.2,1.4-0.7,1.7
	c-0.7,0.5-1.7,0.7-3.4,0.7h-0.2l-0.2-0.2h-0.2l-3.4-2.4l-2.9,2.4c-1.4,1.2-2.4,2.2-2.4,3.1l1.4,3.1c0.7,1,0.7,1.4,0.5,2.2
	c-0.5,0.7-1.7,1.4-3.4,1.7l-1.4,0.7c-1.7,0.5-3.1,0.2-4.1-1l-0.5-0.7l-6.3-6.5c-2.9-1-4.6-2.2-5.3-3.6c-0.5-0.7-0.7-1.4-0.5-1.9
	c-0.3-2.2-0.7-3.6-1.2-4.3l-1.2,0.7l-0.2,0.5c0,0.7,0.2,1.4,1,2.4l0.2,0.5l0.2,0.2l-0.2,0.5l-3.4,5.5l-5.5-1.2l-1.2-0.7l0,0v-0.7
	c0.5-1,0.5-2.2,0-3.4l-0.7-1.9l-4.6-3.4l-0.2-0.2c-0.5,0.7-1,0.7-1.4,1l-4.3-0.5c-1.4-0.2-2.4-0.5-2.9-1.4c-0.2-0.5-0.2-1.4,0.2-2.6
	l0.2-0.7l-1.9-3.4l-8.4,0.5c0.2,1.2,0,1.9-0.5,2.9c-0.2,0.7-1.2,1-1.9,1c-1.2,0.5-2.7,0-3.8-1.2v-0.2h-0.2c-1.9-2.2-2.7-3.8-2.7-5.3
	l-1.7-2.4l-2.4,1.7c-2.2,1.2-3.6,1.2-4.3,0.2l-1-0.2L854,169l-6.5,2.2c-1.4,1-2.6,1.2-3.6,1.2h-0.7c-2.4,0-3.8-0.7-4.8-1.7l-3.8-3.1
	L829.7,160.1z"/>
<path class="st5" d="M979.3,114.8l-3.6-23.6l0.2-0.5h0.2c1.7-2.6,2.7-4.8,2.2-6.5l-1-1.4c-2.6-1.7-3.8-5.5-3.1-12h-2.2
	c-1.7-0.2-3.6,0.5-5.5,1.7c-1.9,1.4-3.1,3.1-3.4,4.3c-1,2.9-4.1,4.8-9.4,6.5l-1.2,7.5V91l-0.2,0.2l-2.6,4.8l-0.2,0.5h-0.2H949
	l-23.8,4.3H925h-0.7v-0.5l-7-7.5l2.2-2.2l-2.6-3.6l-3.4-2.4l-0.2-0.2h-0.2v-0.2V84l-1.2-6.5l-6.3,0.5l-0.5-0.5l-5.3-3.1l-19-3.4
	l-15.9-0.7l-0.5,0.5c-0.7,0-1.2-0.2-1.5-0.7l-9.1-20.7c-1-1.7-4.8-7-12.5-16.1c-7.2-8.9-11.3-13.7-12.5-14.7L815.2,5.3l-2.2-1.2
	l-16.8-0.2H796l-0.5-0.5c-1.7-1.2-4.1-2.4-7.7-3.1c-3.1-1.2-10.3,1.2-21.6,7.2l-0.5,0.2l0.5,3.4h0.2v0.2h-0.2v0.5l-1.9,3.9v0.2H764
	l-0.2,2.6c0,2.2,0.5,4.6,1.2,6.5l1.7,1.2l3.6-0.2l3.1,0.7l1.2-1c0-2.2,0.7-3.9,1.7-4.3h2.4l8.4,2.4l1.9,0.2l-2.6,4.6v5.5
	c0,1.2,2.2,4.1,6.5,8.2c2.7,1.9,4.3,2.9,5.8,3.1l1.2-0.2l1.2-0.5l4.1-4.1l3.1-1.9v-0.2l0,0l6.5-1l1.9-4.1l5.8-3.4l5.1,2.9v0.2
	l0.5,0.2l4.8,8.2l1.9,5.5v0.7l-1,6.7l1.9,4.6V60l-1.4,5.3v4.8c1.4,4.3,2.2,7.2,2.2,7.9l-0.5,4.1l0,0v0.2l-2.4,3.4V86l0,0l0,0
	l-2.4,2.9l-0.2,5.3l1.4,5.5l0,0l0.2,0.2l-0.2,0.2l0,0l-1.4,8.4l-1.2,1.2c-1,0.7-2.2,0.7-3.6,0h-0.5l-2.2-2.4l-2.4,0.7l-3.1,3.4
	l-3.4,9.9v0.2l-0.2,0.2l-3.4,2.9h-0.5l-1.9,0.2l-3.8,5.5l1.9,3.6l0.5,0.5l4.8,6v0.2v1.9l5.3,0.7l1,4.8v0.2l0.7,5.8l1.4,1.2l4.8-1.4
	l4.6-2.6l0.7-0.5l1.7,8.2l2.2,3.1l0.5,0.2l1.7,3.4l3.6,2.9c0.5,0.7,1.7,0.7,2.9,0.7l1.2,0.2l2.2-1c1.7-0.7,3.4-1.4,5.3-1.7l1.4-0.7
	l3.4-0.2c1.2,0,1.7,0.2,2.4,1l4.8-3.1h0.5l0.5,0.2l0.2-0.2l0.5,0.5c1.9,2.2,2.9,4.1,2.9,5l2.2,3.6l1.7,0.5h0.2h0.2l-0.5-0.5
	c-0.2-1.2-0.2-1.9,0-2.4c0.5-0.7,1.4-1.2,2.9-1.2l8.9-0.2l0.2-0.2h0.5v0.5h0.5l2.6,5.1l-0.2,2.6h-0.2l3.4,0.7h0.2
	c-0.2-0.7-0.2-1.2,0.2-1.7l1.2-0.2l7.9,5.5c0.7,0.7,1.2,1.7,1.4,2.9l0.2,3.4l2.7,0.5l1.7-2.9c-0.7-1.5-1.2-2.9-1-3.9
	c0.2-1,0.5-1.7,1.4-2.2l0.7-0.7c0-0.5,0.2-0.7,0.7-1l2.2,0.2c1.2,0.7,2.2,3.1,2.7,7.2v0.5l0.5,0.2c0.2,1,1.7,1.7,3.9,2.4h0.2
	l0.2,0.2l7.7,7.9l0,0l3.6-1.2l-0.5-1.2c-1-1.2-1.2-2.4-1.2-3.1c0-1.7,1.2-3.4,3.6-5.1l4.1-3.6l4.8,3.4h1l1-5.3v-1l1-0.2l3.9,0.5
	c0.7,0.7,1.2,1.4,1.2,2.6c0,1-0.7,2.2-1.4,3.1l0.7,0.5c2.4,1.2,4.3,2.2,5.8,2.4h0.2l0,0l3.1,1.7l2.4-0.2l-3.6-17.6
	c-2.4-1.4-4.6-4.3-6.7-7.7c-1.7-2.9-0.7-7,3.1-11.8c2.2-2.4,4.8-4.8,7.7-7.2l0,0l0.2-0.5h3.4l0.2,0.5l2.9,1.2h6
	c2.4-1.2,4.6-4.8,7-10.6C980.3,132.6,980.3,125.7,979.3,114.8z"/>
<g>
	<g>
		<path class="st4" d="M840.5,354.3l-0.5,0.2c0,1.2-0.7,1.9-1.9,1.9l-9.4-1c-6.5-1.2-10.8-2.2-13-3.4l-13.2,12.5l0.5,5.3v0.5
			l-1.2,0.2c-10.3,1.4-15.9,0.5-16.6-2.9l-1.2-14.9l-12-0.7l-5.1,10.6l-0.5-4.6c-0.2-3.6-1-5.8-1.7-6.3l-5.3,2.6l-2.4,3.1l-0.2,0.2
			h-0.2l-4.8,1.7c-5.3,4.3-9.9,8.9-14,13.7L725,390.6l2.6,6v1l0,0l-0.2,0.2c-1,1.4-0.5,3.6,1,6c1.7,3.1,2.9,6.5,2.9,10.4v0.7
			l-10.3,6v2.4l4.8,2.2c0.5,0.2,0.7,0.7,0.7,1v0.5c-0.2,1.2,1.7,2.9,5.3,4.6l8.9,2.4l2.7-1.7l2.9-4.1l2.4-7l7,2.6l1,0.7v0.5l0,0v0.2
			c-1.2,2.9-0.5,4.8,1.7,6l7.7,0.2c2.6-0.5,4.8-1.4,6.3-2.6c1-1.2,2.4-1.4,4.6-1.2c2.6,0.5,5.1,1.4,6.7,3.6l1.7-4.1l0.5-0.7h0.2
			c1.2-0.7,1.9-1.9,2.9-3.6c0.7-1.7,1.9-3.4,3.8-4.6l3.4-1.9l0.2-0.2l0.2,0.2h0.2l1.9,0.5l0,0l0.5,0.2l2.6-12v-0.2l3.8-0.7
			c3.8-2.6,5.8-4.8,5.5-6.7l-0.7-3.6c-1-2.4-1-4.1-0.5-4.8c0.7-0.7,1.2-1,1.9-1c1.7,0,3.6,0.5,5.5,1.4l0.5-3.9v-0.5l0.2-0.2l4.1-1.9
			l0.5-2.2h-2.4l-0.5-0.2l0.2-1.2v-0.7l0.2-0.5h0.7h0.5c1.7,0,3.6-1,5.8-2.9l15.2-10.8h0.5l4.8,2.2l1.9-0.2l-1.2-5v-0.5l0.2-0.2
			l0.2-0.2l2.6-4.3l-0.7-0.5l-1.7,0.5v0.2h-0.2l-4.8,0.7h-1.2h-0.2v-0.2l-0.2-0.7l-1-1.7H840.5z"/>
	</g>
</g>
<path class="st0" d="M827,444.5c-2.7-2.2-4.8-6-7-12c-7,0-11.1-1.2-13-3.6c-1.4-2.2-4.3-3.6-8.4-4.8l-1.2-0.2l1.2-4.1l-0.7-0.5
	l-1.2-0.2c-2.9,1.4-4.8,2.9-5.5,4.8c-1,1.9-2.2,3.6-3.6,4.8c-1.2,3.8-2.4,5.8-3.6,5.8c-0.7,0.2-1.2-0.2-1.7-1l-1.9-1.7
	c-1.4-0.7-2.9-1.4-4.1-1.4l-2.4,0.5c-1.7,1.7-4.1,2.9-7.7,3.4l-9.1-0.5c-2.9-1.4-4.1-4.3-3.4-7.9l-3.4-1.2l-1.7,4.8l0,0v0.2
	l-0.2,0.2l-0.7,1l2.2,0.5h0.5l0.2,0.2v0.2c4.1,5.5,7.2,9.1,8.9,10.1c1,0.5,3.9,1.4,8.9,2.9l8.7,3.1c2.6,1.2,5.3,6.5,8.2,15.9
	c3.9,2.6,6.3,3.8,7.9,3.6c1.7-0.7,4.6-2.4,8.7-5.1l0.2-0.2l0.2-0.2l0.5,0.2l4.3,1h0.5v0.7l-0.2,0.7c-1.4,5.8-2.6,9.2-3.6,10.1
	l-5.8,0.2v0.2c0,2.4-1.7,6-4.8,10.6c-1,1.4-1.2,2.6-1.2,3.4l5.5,3.8c1.4,1.7,2.4,2.2,3.6,2.2h1.2l1.2,4.1l2.6,1l1.4-1.4
	c0.7-0.7,1.7-1.2,2.4-1c2.4,0,4.3,1.4,6.7,4.6l0,0l2.2,2.9l0.2-0.2c1.4-1,4.1-0.7,7.9,0.5l6.2,1.4l5.8-1.9l2.4-1.2l1.7-1.2l-1.4-1.7
	c-0.5-1,0-2.2,1.2-3.4c1.4-1.2,2.4-2.4,2.4-3.8v-2.9c-0.5-1.4-0.2-2.4,0.2-2.9c0.5-1,2.2-1.5,4.1-1.9c3.1-0.5,7,1,11.5,4.8l-1.7-4.8
	l-2.6-3.6l-0.5-4.3l-4.1-0.7H852V477l0,0l0,0l-10.8-6.3l-5.3-1v-1.2l-0.2-5.5C832.1,452.9,829.2,446.7,827,444.5z"/>
<path class="st1" d="M785.4,296.5l-1.9-1l0,0h-0.2l-1.4-1.4l-6.7-1.9h-1.7l-1.2,0.5l-2.7-5.1l0.2-0.2l1.9-2.4v-2.9l0.2-0.5l1.2-1.9
	l-1-0.5l-3.6-0.7l0,0l-6.3-1h-0.5l-3.6-3.6v-0.2l-1.2-2.4l-0.2-0.7l1.9-5v-3.6l-0.2-1l-1.9,1.9l-0.2,0.2l-0.5,0.7l-0.5-0.7l-0.7-0.2
	l-3.6-2.9l-0.5-0.5V259l-0.7-5.3l-1.7-2.7l-3.6,0.2l-2.2,3.8l-0.2,0.5l-0.2,0.2l-5.8-1.2l-1,5.3v5.3l-0.2,0.2l-3.1,4.8v0.5l-0.5,0.2
	H731l-3.6,0.2l-3.6,2.9l-0.5,0.5l0,0h-0.5l-0.2-0.2l-6.7-2.2l-1,2.4v0.2l-2.9,4.8c-0.5,1-1.2,1.4-1.9,1.7l-2.9-0.5l-3.9-1.7
	l-0.7-0.5l-0.2-0.2v-0.2l-0.7-5.8l-1.2-4.3l-0.7-1.2l-1.7,3.4l0,0l0,0l-2.9,3.9l-2.4,5.5v0.2l0,0v0.2h-0.2l-2.2,3.1
	c0,1-0.7,2.4-2.2,4.6l1.4,5.5l7.2,7.9l0,0l2.4,5v0.5l-0.2,0.5h-0.2l-1.9,2.4l-0.5,0.5l-4.8,1l0.5,3.8l3.6,1.9l5.3,1.2l1.4,4.8l0,0
	l0,0v0.2v0.2l-1.2,8.2l0,0v0.2l-1.9,3.6v0.7h-0.5l-6,1v2.4l-1.7,5.3l-0.7,6l1.2,3.4l7.5,4.6l0.2,0.2l3.1,5.3v0.2l0.2,0.2l-0.2,0.2
	l-3.8,8.4l-1,2.4l0,0l-2.4,5.5l-1,4.3l-0.2,0.5v0.2c-1.2,1-1.9,1.9-2.4,3.4c-0.2,0.5-0.2,1,0.2,1.4l0.2,0.2l2.4,2.6l0,0l0,0l1.2,1.9
	l0.5-0.2l0,0l0.2,0.7v0.2v0.7l0,0v0.2l0,0l0,0l0.5,1.4l2.2,0.7l8.7,1.9c2.9,0,5.5-0.7,8.4-1.9c2.9-1.2,5.5-1.4,8.4-1l0.5-1.7
	l-2.9-6.5l-0.2-0.5h0.2l13.7-19l14.7-14.2h0.2l4.6-1.7l2.4-2.7v-0.2c1.9-1.4,3.6-2.4,5.5-3.1l-1.4-1.2l-3.1-3.1v-0.2h-0.2L756,342
	l-0.2-0.5V341l1.2-1.4l-3.1,0.7l-6.7-1.7c-2.6-1.2-4.3-2.6-4.8-4.3c-1.4-4.3-1.9-8.2-1.7-11.5c-1,1.2-2.2,1.4-3.4,1.4l-5.1-1.2
	l-3.4-2.4l-4.1-1h-1.9c-1.2,0-2.6-0.5-3.6-1.4c-1.4-1-2.2-1.9-2.4-2.9c-0.5-1.9,0-3.1,1.7-4.3c1.7-1.2,3.6-3.1,5.3-5.5
	c-1.7-2.2-2.4-4.3-1.7-6.5l0.2-0.2c0.2-1.2,2.2-2.2,5.8-3.4c0.2-1.2,0.7-1.9,1.2-2.2l3.6,0.2l-0.5-0.5c-2.4-1.4-3.1-3.1-1.9-5.1
	l1.9-1.4c2.2-0.7,4.8-0.5,7.5,1l5.5,3.8h5.1l1.7,1.4l0.5,1.9c0,1.2-0.7,1.9-1.7,1.9c-1.2,0-1.7,1.2-1.9,2.6l2.4,5.8
	c1.5-2.2,2.9-3.4,4.3-3.6c0.7,0,1.7,0.5,2.4,1.4c0.7,1.2,1.4,3.4,1.9,5.5c0.2,2.6,1,4.8,1.7,6l1.9,2.6c2.9,3.6,4.6,6.3,5.1,8.4
	l9.4-1.2l4.1-2.2l3.8-4.8l1.7-4.6v-0.2v-0.2l1.2-4.8v-0.2l0.2-0.5h0.2l3.6-2.4l0.7-0.5l-0.2-0.2l-6-1.9h-0.5v-0.2l-1.2-3.6
	L785.4,296.5z"/>
<path class="st0" d="M873.2,631.2c-7.7,5.5-13.2,12.5-16.8,20.9c-3.1,7.2-5.5,10.8-7.2,11.8l1.7,13.2v0.2l0,0l-1.2,9.1
	c-0.5,2.9,0,4.8,0.7,5.3l9.9,6.5l0,0h0.2l0.2,0.7l0,0c0.5,2.2,1.9,4.1,3.8,6.5c1,1.4,2.2,2.2,3.1,2.6l1.5-15.9v-0.5l7-16.8l2.4-20
	v-0.2l0.2-0.2l2.2-5.3l-1.7-4.6v-0.2H879l-0.5-6.3l0.2-0.2l0.2-0.3l1.2-1.4l0.7-1.7L873.2,631.2z"/>
<path class="st0" d="M636.2,772l-0.7,1.2v0.2l-0.2,0.5l-9.9,2.4l0.5,1.2l3.1,3.6c-0.2,0-0.7,0.2-1,0.2l-4.6,2.4l-7.2,5.5
	c-2.4,2.9-1.9,8.2,1.7,16.1l7.2,0.7h0.2v0.2l7.2,3.4l7.7-1.2c3.1-0.7,6.7-3.6,11.3-9.1h0.2l0.5-0.5l3.4-1l-1-10.1v-0.5l4.3-6.3v-0.2
	h0.2l3.4-2.6c0.5-2.9,0.2-5.5-1-7.7c-1-1.9-2.2-2.6-3.4-2.6l0.5,3.6l-6.5-1.2l-2.9,1.7h-0.2l0,0H636.2z"/>
<g>
	<defs>
		<path id="SVGID_1_" d="M582.8,372.9l-1.4-0.2l-2.4,14.7l4.1,4.8l3.9,1.7l0,0h0.2l0.2,0.2l5,4.1l7,1.7h0.2l3.6,2.4h0.2l0,0v0.5
			l2.6,3.8l0.5,0.5l-0.2,0.5l-2.4,3.9c-0.5,0.5-0.5,1.7-0.5,3.6h0.2v4.6l-0.2,0.2l0,0l-2.2,7.2l-0.2,1.2h-0.5l-0.7-0.2l-3.1-0.7
			l-4.1,0.2l-3.6,1.2l-4.1,3.4l-1,1l5.3,2.6l-0.5,1c-0.2,1.2-1.4,2.4-3.4,3.1l-3.4,0.2l-5.5-2.2l0,0l0,0l-5.1-2.9h-2.2l-6,8.7
			l-1.2,2.9v5.1l2.4,4.1v0.2l0,0l0,0l1.4,3.8v0.5l0.2,5.5v0.7l0.2,0.5l-3.8,0.7h-7.2l-3.4,2.2l-1.4,2.4l0.2,0.2l1.4,7.2h0.2v2.9
			l1.7,3.4l5.1,3.4l7.5-1.7l3.6-2.4l0.5-0.2h3.4l1.9,4.6c1.2,1.2,2.2,2.4,2.6,3.8l1.7-0.2h0.5h0.5l0.2-0.5l3.4-2.6l3.1,5.5l3.4,2.2
			h4.8l3.6-0.5h0.7l8.7,1.2h0.2v0.2l3.6,2.2l0,0l0,0v0.2l3.1,2.4v0.2l2.2,2.4l2.4,1l3.8-0.5v-5.1l-1.9-3.4h-0.2V498l-1.4-6.3
			l3.4-3.4l0.2-0.2h0.2l2.9-0.5h3.1l1-1.2l-1.9-2.6l-7-4.6l-1.7-2.6l-0.2-0.2l-0.2-0.2l0.2-0.5l1.9-3.6l0.5,0.5l4.8,1.2l12.8-0.5
			l0.2,0.2h0.2l3.6,1.2l2.4-2.2l-1.2-7.5l-4.6-2.9c-3.9-2.2-5.1-7.5-4.3-16.1l-3.8-1.9l-0.5-0.2h-0.5v-0.5v-0.2l-0.7-6.3l5.3-24.6
			c-2.2-7.2-3.4-12-3.4-14.4l-0.5-7.2l0.5-7.9v-0.5l0.5-0.5l0,0l4.8-3.6v-3.8c0-1-0.5-2.4-1.7-4.3l-3.1-3.4h-0.5v-0.7l-0.5-5.8v-0.2
			l-0.2-0.2l0.5-0.2v-0.2l6.3-7.9v-3.4l-1.9-3.6V344l-0.2-0.5l3.1-3.9v-0.2h0.2l3.4-2.6l-0.5-3.1h-1.7l-2.6-0.5l-1.4,5.8l-0.7-0.2
			l-6.2-2.4l-3.8-0.7l1.4,6l-5.3,1.7l-7.7,4.1l-2.4,3.1l0,0v0.2h-0.2l-4.1,3.6l-0.7,5.8v0.5l-2.2,8.2h0.2l-1,3.8v0.2l0,0l-0.2,0.2
			l-2.6,3.6h-0.2v0.2l-0.2,0.2h-0.2l-5.8,0.7l0,0v0.2l-0.2-0.2l0,0l-8.7-2.9l-0.2-0.2L582.8,372.9z"/>
	</defs>
	<use xlink:href="#SVGID_1_"  style="overflow:visible;fill:#FF8E61;"/>
	<clipPath id="SVGID_2_">
		<use xlink:href="#SVGID_1_"  style="overflow:visible;"/>
	</clipPath>
	<g class="st7">
		<g>
			<line class="st6" x1="599" y1="659.6" x2="952.1" y2="306.5"/>
			<line class="st6" x1="612.8" y1="659.6" x2="965.9" y2="306.5"/>
			<line class="st6" x1="626.6" y1="659.6" x2="979.6" y2="306.5"/>
			<line class="st6" x1="640.3" y1="659.6" x2="993.4" y2="306.5"/>
			<line class="st6" x1="654.1" y1="659.6" x2="1007.1" y2="306.5"/>
			<line class="st6" x1="667.8" y1="659.6" x2="1020.9" y2="306.5"/>
			<line class="st6" x1="681.6" y1="659.6" x2="1034.7" y2="306.5"/>
			<line class="st6" x1="695.3" y1="659.6" x2="1048.4" y2="306.5"/>
			<line class="st6" x1="722.9" y1="659.6" x2="1076" y2="306.5"/>
			<line class="st6" x1="709.1" y1="659.6" x2="1062.2" y2="306.5"/>
			<line class="st6" x1="736.6" y1="659.6" x2="1089.7" y2="306.5"/>
			<line class="st6" x1="750.4" y1="659.6" x2="1103.5" y2="306.5"/>
			<line class="st6" x1="777.9" y1="659.6" x2="1131" y2="306.5"/>
			<line class="st6" x1="764.2" y1="659.6" x2="1117.2" y2="306.5"/>
			<line class="st6" x1="791.7" y1="659.6" x2="1144.8" y2="306.5"/>
			<line class="st6" x1="805.4" y1="659.6" x2="1158.5" y2="306.5"/>
			<line class="st6" x1="833" y1="659.6" x2="1186" y2="306.5"/>
			<line class="st6" x1="819.2" y1="659.6" x2="1172.3" y2="306.5"/>
			<line class="st6" x1="846.7" y1="659.6" x2="1199.8" y2="306.5"/>
			<line class="st6" x1="860.5" y1="659.6" x2="1213.6" y2="306.5"/>
			<line class="st6" x1="874.2" y1="659.6" x2="1227.3" y2="306.5"/>
			<line class="st6" x1="888" y1="659.6" x2="1241.1" y2="306.5"/>
			<line class="st6" x1="901.8" y1="659.6" x2="1254.8" y2="306.5"/>
			<line class="st6" x1="915.5" y1="659.6" x2="1268.6" y2="306.5"/>
			<line class="st6" x1="929.3" y1="659.6" x2="1282.4" y2="306.5"/>
			<line class="st6" x1="956.8" y1="659.6" x2="1309.9" y2="306.5"/>
			<line class="st6" x1="943" y1="659.6" x2="1296.1" y2="306.5"/>
			<line class="st6" x1="970.6" y1="659.6" x2="1323.6" y2="306.5"/>
			<line class="st6" x1="984.3" y1="659.6" x2="1337.4" y2="306.5"/>
			<line class="st6" x1="1011.8" y1="659.6" x2="1364.9" y2="306.5"/>
			<line class="st6" x1="998.1" y1="659.6" x2="1351.2" y2="306.5"/>
			<line class="st6" x1="1025.6" y1="659.6" x2="1378.7" y2="306.5"/>
			<line class="st6" x1="1039.4" y1="659.6" x2="1392.4" y2="306.5"/>
			<line class="st6" x1="1053.1" y1="659.6" x2="1406.2" y2="306.5"/>
		</g>
	</g>
</g>
</svg>
