<?xml version="1.0" encoding="utf-8"?>
<!-- Generator: Adobe Illustrator 22.0.1, SVG Export Plug-In . SVG Version: 6.00 Build 0)  -->
<svg version="1.1" id="图层_1" xmlns="http://www.w3.org/2000/svg" xmlns:xlink="http://www.w3.org/1999/xlink" x="0px" y="0px"
	 viewBox="0 0 20 20" style="enable-background:new 0 0 20 20;" xml:space="preserve">
<style type="text/css">
	.st0{fill:#005CC5;}
</style>
<path class="st0" d="M9.8,9.4"/>
<path class="st0" d="M16.3,16.9H3.7c0-1.6,0-2.2,0.2-2.8c0.3-0.6,0.8-1,1.8-1.2c2.3-0.5,2.3-0.7,2-1.2C6.4,9.3,6.2,7.2,7,5.8
	c0.6-1,1.7-1.6,3-1.6c1.3,0,2.4,0.6,2.9,1.6c1,1.7,0.3,4.1-0.6,5.9c-0.3,0.5-0.3,0.7,2,1.2c0.9,0.2,1.5,0.6,1.8,1.2
	C16.3,14.7,16.3,15.3,16.3,16.9z M4.9,15.6h10.2c0-1.1-0.1-1.4-1-1.6c-1.3-0.3-2.6-0.6-3-1.5c-0.2-0.4-0.2-1,0.1-1.5
	c0.7-1.3,1.4-3.3,0.7-4.6c-0.4-0.6-1-1-1.9-1c-0.9,0-1.5,0.3-1.9,1c-0.6,1-0.4,2.7,0.7,4.6c0.3,0.6,0.4,1.1,0.2,1.5
	c-0.4,0.9-1.7,1.2-3,1.5C5,14.3,4.9,14.5,4.9,15.6z"/>
</svg>
