<?xml version="1.0" standalone="no"?><!DOCTYPE svg PUBLIC "-//W3C//DTD SVG 1.1//EN" "http://www.w3.org/Graphics/SVG/1.1/DTD/svg11.dtd"><svg t="1557730390755" class="icon" style="" viewBox="0 0 1024 1024" version="1.1" xmlns="http://www.w3.org/2000/svg" p-id="4886" xmlns:xlink="http://www.w3.org/1999/xlink" width="200" height="200"><defs><style type="text/css"></style></defs><path d="M0 102.4l119.872 0 0 119.872-119.872 0 0-119.872Z" p-id="4887" fill="#0680d0"></path><path d="M229.76 102.4l794.24 0 0 119.872-794.24 0 0-119.872Z" p-id="4888" fill="#0680d0"></path><path d="M0 451.968l119.872 0 0 119.872-119.872 0 0-119.872Z" p-id="4889" fill="#0680d0"></path><path d="M229.76 451.968l794.24 0 0 119.872-794.24 0 0-119.872Z" p-id="4890" fill="#0680d0"></path><path d="M0 801.728l119.872 0 0 119.872-119.872 0 0-119.872Z" p-id="4891" fill="#0680d0"></path><path d="M229.76 801.728l794.24 0 0 119.872-794.24 0 0-119.872Z" p-id="4892" fill="#0680d0"></path></svg>